{"glyphs":{"0":{"ha":758,"x_min":60,"x_max":699,"o":"m 614 83 q 513 6 571 29 q 361 -18 456 -18 q 200 22 267 -18 q 60 461 60 108 q 206 903 60 813 q 382 946 274 946 q 622 840 544 946 q 699 465 699 735 q 614 83 699 190 m 480 712 q 465 746 480 712 q 379 781 450 781 q 278 712 308 781 q 249 463 249 643 q 278 215 249 283 q 379 146 308 146 q 480 215 450 146 q 510 463 510 283 q 480 712 510 643 z "},"1":{"ha":524,"x_min":10,"x_max":435,"o":"m 435 1 l 242 1 l 242 744 l 71 671 l 10 808 l 285 928 l 435 928 l 435 1 z "},"2":{"ha":669,"x_min":38,"x_max":626,"o":"m 38 0 l 38 146 q 284 426 188 310 q 402 580 381 542 q 424 672 424 618 q 392 757 424 726 q 287 788 360 788 q 117 746 214 788 l 74 885 q 324 947 200 947 q 522 875 449 947 q 596 683 596 803 q 565 548 596 610 q 470 400 535 486 q 268 161 406 314 l 626 161 l 614 0 l 38 0 z "},"3":{"ha":679,"x_min":38,"x_max":628,"o":"m 397 679 q 363 751 397 728 q 262 775 329 775 q 92 733 194 775 l 47 882 q 311 944 183 944 q 511 878 439 944 q 583 701 583 813 q 558 593 583 646 q 479 507 532 540 q 628 295 628 443 q 540 65 628 147 q 299 -18 451 -18 q 38 35 186 -18 l 79 189 q 283 144 204 144 q 442 288 442 144 q 399 389 442 351 q 272 426 356 426 l 176 426 l 176 567 l 258 567 q 397 679 397 567 z "},"4":{"ha":789,"x_min":26,"x_max":757,"o":"m 757 244 l 613 244 l 613 0 l 428 0 l 428 244 l 26 244 l 26 347 l 396 929 l 613 929 l 613 376 l 757 376 l 757 244 m 428 376 l 426 701 l 231 376 l 428 376 z "},"5":{"ha":671,"x_min":39,"x_max":626,"o":"m 306 146 q 403 185 365 146 q 440 305 440 225 q 406 422 440 385 q 310 458 371 458 q 192 401 249 458 l 90 450 l 90 929 l 575 929 l 575 769 l 253 769 l 253 593 q 367 625 297 625 q 553 544 479 625 q 626 318 626 463 q 546 78 626 174 q 322 -18 465 -18 q 39 67 178 -18 l 99 204 q 306 146 215 146 z "},"6":{"ha":693,"x_min":57,"x_max":649,"o":"m 351 -17 q 57 393 57 -17 q 161 801 57 658 q 436 944 265 944 q 610 906 524 944 l 567 757 q 449 775 518 775 q 332 726 381 775 q 265 574 283 678 q 331 611 293 599 q 396 624 369 624 q 581 549 513 624 q 649 326 649 474 q 572 81 649 178 q 351 -17 496 -17 m 250 432 q 276 207 250 269 q 355 144 303 144 q 435 191 407 144 q 463 315 463 238 q 435 428 463 393 q 356 463 408 463 q 250 432 304 464 z "},"7":{"ha":601,"x_min":31,"x_max":585,"o":"m 31 769 l 31 929 l 585 929 l 585 829 l 435 469 q 296 0 332 244 l 114 0 q 247 472 143 235 q 381 769 250 478 l 31 769 z "},"8":{"ha":719,"x_min":51,"x_max":667,"o":"m 667 264 q 590 65 667 147 q 362 -17 513 -17 q 131 57 211 -17 q 51 260 51 131 q 92 392 51 328 q 204 497 133 456 q 93 692 93 565 q 169 882 93 818 q 366 946 244 946 q 560 885 488 946 q 632 715 632 824 q 503 499 632 575 q 667 264 667 419 m 460 706 q 460 725 460 706 q 433 766 460 744 q 365 788 406 788 q 294 767 324 788 q 265 702 265 747 q 295 618 265 657 q 369 558 325 579 q 435 625 410 582 q 460 706 460 668 m 232 264 q 268 176 232 207 q 361 144 304 144 q 452 180 418 144 q 486 272 486 215 q 447 363 486 329 q 338 424 408 396 q 332 426 336 424 q 326 428 328 428 l 325 429 q 232 264 232 372 z "},"9":{"ha":694,"x_min":46,"x_max":638,"o":"m 343 943 q 638 533 638 943 q 533 126 638 268 q 258 -17 429 -17 q 85 22 171 -17 l 128 171 q 245 153 176 153 q 363 201 314 153 q 429 353 411 250 q 363 315 401 328 q 299 303 325 303 q 114 378 182 303 q 46 601 46 453 q 122 846 46 749 q 343 943 199 943 m 444 494 q 418 719 444 657 q 340 782 392 782 q 260 735 288 782 q 232 611 232 689 q 259 499 232 533 q 338 463 286 464 q 444 494 390 463 z "}," ":{"ha":258,"x_min":0,"x_max":0,"o":""},"!":{"ha":344,"x_min":60,"x_max":288,"o":"m 274 975 l 243 300 l 97 300 l 71 975 l 274 975 m 60 106 q 60 129 60 106 q 93 186 60 153 q 174 219 126 219 q 254 186 221 219 q 288 106 288 153 q 254 25 288 60 q 174 -10 221 -10 q 93 24 126 -10 q 60 106 60 58 z "},"\"":{"ha":540,"x_min":56,"x_max":485,"o":"m 56 972 l 231 972 l 206 624 l 81 624 l 56 972 m 310 972 l 485 972 l 460 624 l 335 624 l 310 972 z "},"#":{"ha":892,"x_min":53,"x_max":835,"o":"m 493 385 l 517 517 l 371 517 l 347 385 l 493 385 m 835 239 l 621 239 l 576 -18 l 422 -18 l 467 239 l 321 239 l 276 -18 l 122 -18 l 167 239 l 53 239 l 53 385 l 193 385 l 217 517 l 61 517 l 61 661 l 242 661 l 290 928 l 443 928 l 396 661 l 542 661 l 590 928 l 743 928 l 696 661 l 835 661 l 835 517 l 671 517 l 647 385 l 835 385 l 835 239 z "},"$":{"ha":685,"x_min":36,"x_max":651,"o":"m 329 153 q 458 253 458 153 q 415 336 458 301 q 299 405 372 371 q 194 457 225 439 q 125 508 163 475 q 54 683 54 571 q 119 860 54 794 q 289 940 183 925 l 283 1092 l 410 1092 l 404 943 q 614 893 493 936 l 558 742 q 364 782 444 782 q 247 690 249 782 q 272 634 247 653 q 308 608 297 615 q 353 583 319 600 q 417 549 388 565 q 470 519 446 533 q 535 474 494 504 q 597 417 575 443 q 651 249 651 347 q 586 78 651 151 q 406 -12 521 6 l 411 -154 l 285 -154 l 289 -15 q 36 46 139 -3 l 88 211 q 329 153 215 153 z "},"%":{"ha":1125,"x_min":35,"x_max":1092,"o":"m 404 0 l 224 0 l 714 960 l 893 960 l 404 0 m 233 449 q 188 449 233 449 q 89 503 143 449 q 35 708 35 558 q 107 922 35 864 q 257 972 168 972 q 400 916 346 972 q 454 710 454 860 q 383 497 454 556 q 233 449 322 449 m 303 842 q 293 861 303 842 q 244 879 283 879 q 185 842 206 879 q 165 708 165 806 q 185 575 165 610 q 244 540 206 540 q 303 576 283 540 q 324 708 324 611 q 303 842 324 806 m 870 -14 q 825 -14 870 -14 q 726 41 781 -14 q 672 246 672 96 q 744 461 672 401 q 894 510 806 510 q 1038 453 983 510 q 1092 247 1092 397 q 1019 35 1092 93 q 870 -14 960 -14 m 941 380 q 931 398 941 380 q 882 417 921 417 q 823 380 843 417 q 803 245 803 343 q 823 113 803 147 q 882 78 843 78 q 941 113 921 78 q 961 246 961 149 q 941 380 961 343 z "},"&":{"ha":940,"x_min":49,"x_max":935,"o":"m 329 436 q 253 367 281 413 q 225 267 225 321 q 263 173 225 214 q 384 132 301 132 q 532 193 467 132 l 329 436 m 154 752 q 154 798 154 752 q 222 896 154 843 q 396 949 290 949 q 642 897 501 949 l 596 763 q 410 808 489 808 q 332 736 332 808 q 399 606 332 685 l 636 319 q 707 592 696 436 l 857 592 q 733 210 849 363 q 935 83 807 146 l 861 -46 q 740 16 810 -24 q 625 90 669 56 q 375 -18 522 -18 q 138 54 228 -18 q 49 264 49 126 q 247 542 49 440 q 154 752 154 661 z "},"'":{"ha":286,"x_min":56,"x_max":231,"o":"m 56 972 l 231 972 l 206 624 l 81 624 l 56 972 z "},"(":{"ha":419,"x_min":43,"x_max":394,"o":"m 274 -185 q 43 430 43 131 q 274 1044 43 729 l 394 961 q 228 428 228 676 q 394 -101 228 179 l 274 -185 z "},")":{"ha":419,"x_min":25,"x_max":376,"o":"m 146 1044 q 376 430 376 729 q 146 -185 376 131 l 25 -101 q 192 428 192 179 q 25 961 192 676 l 146 1044 z "},"*":{"ha":546,"x_min":47,"x_max":497,"o":"m 361 732 l 497 679 l 426 565 l 324 657 l 338 511 l 206 511 l 219 661 l 115 565 l 47 682 l 183 731 l 49 781 l 114 901 l 219 804 l 206 953 l 336 953 l 324 806 l 428 900 l 497 781 l 361 732 z "},"+":{"ha":671,"x_min":51,"x_max":619,"o":"m 413 107 l 258 107 l 258 310 l 51 310 l 51 463 l 258 463 l 258 664 l 413 664 l 413 463 l 619 463 l 619 310 l 413 310 l 413 107 z "},",":{"ha":303,"x_min":-28,"x_max":239,"o":"m 239 82 q 115 -178 239 -64 l -28 -178 q 86 61 86 -46 q 63 161 86 107 l 222 161 q 239 82 239 125 z "},"-":{"ha":707,"x_min":71,"x_max":636,"o":"m 636 461 l 636 310 l 71 310 l 71 461 l 636 461 z "},".":{"ha":336,"x_min":54,"x_max":282,"o":"m 54 106 q 54 129 54 106 q 88 186 54 153 q 168 219 121 219 q 249 186 215 219 q 282 106 282 153 q 249 25 282 60 q 168 -10 215 -10 q 88 24 121 -10 q 54 106 54 58 z "},"/":{"ha":592,"x_min":25,"x_max":567,"o":"m 567 1015 l 174 -164 l 25 -124 l 421 1058 l 567 1015 z "},":":{"ha":369,"x_min":69,"x_max":300,"o":"m 69 106 q 69 129 69 106 q 103 186 69 153 q 183 219 136 219 q 264 186 231 219 q 297 106 297 153 q 264 25 297 60 q 183 -10 231 -10 q 103 24 136 -10 q 69 106 69 58 m 72 518 q 72 542 72 518 q 106 599 72 565 q 186 632 139 632 q 267 599 233 632 q 300 519 300 565 q 267 438 300 472 q 186 403 233 403 q 106 437 139 403 q 72 518 72 471 z "},";":{"ha":356,"x_min":3,"x_max":289,"o":"m 269 82 q 146 -178 269 -64 l 3 -178 q 117 61 117 -46 q 93 161 117 107 l 253 161 q 269 82 269 125 m 61 514 q 61 538 61 514 q 94 594 61 561 q 175 628 128 628 q 256 594 222 628 q 289 515 289 561 q 256 433 289 468 q 175 399 222 399 q 94 433 128 399 q 61 514 61 467 z "},"<":{"ha":610,"x_min":43,"x_max":538,"o":"m 43 328 l 43 450 l 538 697 l 538 528 l 249 390 l 538 250 l 538 83 l 43 328 z "},"=":{"ha":678,"x_min":76,"x_max":601,"o":"m 601 599 l 601 450 l 76 450 l 76 599 l 601 599 m 601 328 l 601 178 l 76 178 l 76 328 l 601 328 z "},">":{"ha":610,"x_min":72,"x_max":567,"o":"m 567 450 l 567 328 l 72 83 l 72 250 l 361 390 l 72 528 l 72 697 l 567 450 z "},"?":{"ha":508,"x_min":58,"x_max":476,"o":"m 167 178 q 189 178 167 178 q 243 146 211 178 q 275 69 275 114 q 244 -8 275 25 q 167 -40 213 -40 q 90 -8 122 -40 q 58 70 58 25 q 90 147 58 115 q 167 178 122 178 m 244 331 l 242 256 l 83 256 q 79 349 79 306 q 108 439 85 394 q 151 508 131 483 q 204 562 172 532 q 250 606 236 592 q 297 708 297 653 q 69 844 297 824 l 104 972 q 377 892 278 964 q 476 719 476 821 q 454 622 476 663 q 413 562 432 581 q 360 513 394 543 q 307 463 326 483 q 268 407 288 443 q 244 331 249 371 z "},"@":{"ha":1113,"x_min":50,"x_max":1076,"o":"m 613 576 q 508 520 550 576 q 467 379 467 464 q 539 267 467 267 q 600 299 575 267 q 628 379 625 331 l 643 572 q 613 576 633 576 m 547 -119 q 194 -3 332 -119 q 88 157 126 57 q 50 389 50 257 q 199 792 50 639 q 608 944 349 944 q 958 826 839 944 q 1076 497 1076 707 q 814 140 1076 140 q 734 163 774 140 q 678 221 694 186 q 610 163 653 188 q 526 139 568 139 q 372 200 431 139 q 314 369 314 261 q 399 608 314 517 q 611 700 483 700 q 806 651 694 700 l 781 363 q 779 319 779 346 q 792 281 779 292 q 839 269 806 269 q 926 499 926 269 q 846 726 926 644 q 606 808 765 808 q 311 697 417 808 q 206 392 206 586 q 368 63 206 151 q 569 17 453 17 q 853 75 685 17 l 888 -44 q 547 -119 717 -119 z "},"A":{"ha":789,"x_min":-6,"x_max":792,"o":"m 792 0 l 594 0 l 529 219 l 261 219 l 197 0 l -6 0 l 289 928 l 501 928 l 792 0 m 486 371 l 394 736 l 304 371 l 486 371 z "},"B":{"ha":763,"x_min":89,"x_max":717,"o":"m 569 878 q 664 690 664 817 q 574 508 664 564 q 685 420 654 472 q 717 283 717 368 q 637 76 717 151 q 394 0 557 0 l 89 0 l 89 928 l 292 928 q 460 919 399 928 q 569 878 521 910 m 288 781 l 288 568 l 381 568 q 471 681 471 575 q 410 774 471 758 q 317 781 382 781 l 288 781 m 371 158 q 524 289 524 158 q 480 394 524 365 q 354 422 436 422 l 288 422 l 288 158 l 371 158 z "},"C":{"ha":721,"x_min":54,"x_max":681,"o":"m 671 7 q 467 -18 561 -18 q 305 6 374 -18 q 178 85 236 31 q 54 467 54 200 q 90 695 54 599 q 189 844 126 792 q 471 943 306 943 q 681 913 575 943 l 649 769 q 501 785 569 785 q 324 715 389 785 q 258 469 258 644 q 325 220 258 293 q 510 147 392 147 q 658 158 592 147 l 671 7 z "},"D":{"ha":835,"x_min":89,"x_max":778,"o":"m 289 747 l 289 179 l 358 179 q 535 248 490 179 q 581 464 581 317 q 536 679 581 611 q 358 747 492 747 l 289 747 m 350 0 l 89 0 l 89 926 l 350 926 q 594 890 525 926 q 778 463 778 796 q 734 199 778 313 q 596 38 690 85 q 350 0 521 0 z "},"E":{"ha":744,"x_min":89,"x_max":686,"o":"m 289 161 l 686 161 l 686 0 l 89 0 l 89 929 l 674 929 l 674 768 l 289 768 l 289 558 l 651 558 l 651 403 l 289 403 l 289 161 z "},"F":{"ha":711,"x_min":89,"x_max":674,"o":"m 674 768 l 290 768 l 290 558 l 640 558 l 640 403 l 290 403 l 290 0 l 89 0 l 89 928 l 674 928 l 674 768 z "},"G":{"ha":806,"x_min":53,"x_max":744,"o":"m 187 844 q 218 870 187 844 q 319 919 249 896 q 485 943 389 943 q 713 907 581 943 l 683 763 q 489 785 590 785 q 322 715 388 785 q 257 471 257 644 q 472 147 257 147 q 563 156 515 147 l 563 328 l 432 328 l 432 474 l 744 474 l 744 43 q 433 -18 592 -18 q 167 98 275 -18 q 53 467 58 214 q 89 695 53 599 q 187 844 125 792 z "},"H":{"ha":879,"x_min":89,"x_max":790,"o":"m 592 561 l 592 928 l 790 928 l 790 0 l 592 0 l 592 400 l 288 400 l 288 0 l 89 0 l 89 928 l 288 928 l 288 561 l 592 561 z "},"I":{"ha":378,"x_min":89,"x_max":289,"o":"m 289 928 l 289 0 l 89 0 l 89 928 l 289 928 z "},"J":{"ha":375,"x_min":-81,"x_max":289,"o":"m 90 168 l 90 928 l 289 928 l 289 171 q 226 -84 289 19 q 6 -258 163 -187 l -81 -126 q 57 -6 24 -68 q 90 168 90 57 z "},"K":{"ha":883,"x_min":89,"x_max":886,"o":"m 319 474 l 589 928 l 825 928 l 538 481 l 886 0 l 643 0 l 319 474 m 289 928 l 289 0 l 89 0 l 89 928 l 289 928 z "},"L":{"ha":658,"x_min":89,"x_max":644,"o":"m 290 161 l 644 161 l 644 0 l 89 0 l 89 928 l 290 928 l 290 161 z "},"M":{"ha":1071,"x_min":64,"x_max":1007,"o":"m 608 118 l 463 118 l 271 665 l 249 0 l 64 0 l 118 928 l 335 928 l 535 331 l 736 928 l 953 928 l 1007 0 l 821 0 l 799 664 l 608 118 z "},"N":{"ha":947,"x_min":89,"x_max":858,"o":"m 858 0 l 647 0 l 282 649 l 282 0 l 89 0 l 89 928 l 300 928 l 664 278 l 664 928 l 858 928 l 858 0 z "},"O":{"ha":858,"x_min":54,"x_max":804,"o":"m 135 794 q 252 905 176 865 q 421 944 328 944 q 580 917 514 944 q 688 846 646 890 q 756 739 729 801 q 804 464 804 622 q 725 133 804 267 q 607 24 683 64 q 437 -17 531 -17 q 278 10 343 -17 q 171 82 213 38 q 103 189 129 126 q 54 464 54 306 q 135 794 54 660 m 288 235 q 308 194 288 235 q 429 153 328 153 q 571 235 531 153 q 611 439 611 318 q 597 626 611 560 q 542 737 583 692 q 438 782 500 782 q 340 758 376 782 q 283 688 303 733 q 247 460 247 603 q 288 235 247 318 z "},"P":{"ha":750,"x_min":89,"x_max":722,"o":"m 638 847 q 722 630 722 772 q 628 411 722 488 q 510 356 579 372 q 324 339 440 339 l 289 339 l 289 0 l 89 0 l 89 928 l 357 928 q 526 910 463 928 q 638 847 589 892 m 481 515 q 528 634 528 547 q 480 751 528 721 q 325 781 432 781 l 289 781 l 289 486 l 304 486 q 481 515 442 486 z "},"Q":{"ha":858,"x_min":54,"x_max":935,"o":"m 136 134 q 115 168 136 134 q 74 285 94 203 q 54 465 54 368 q 74 643 54 561 q 135 795 93 725 q 252 905 176 865 q 421 944 328 944 q 580 917 514 944 q 688 846 646 890 q 756 739 729 801 q 804 464 804 622 q 640 46 804 161 q 935 -54 797 28 l 835 -190 q 774 -144 817 -172 q 689 -94 732 -115 q 426 -14 575 -39 q 252 26 326 -14 q 136 134 178 65 m 247 456 q 247 293 247 456 q 429 131 247 131 q 611 456 611 131 q 429 782 611 782 q 247 456 247 782 z "},"R":{"ha":807,"x_min":89,"x_max":790,"o":"m 324 339 l 289 339 l 289 0 l 89 0 l 89 928 l 357 928 q 526 910 463 928 q 638 847 589 892 q 722 642 722 772 q 628 411 722 482 q 553 369 596 386 l 790 46 l 640 -46 l 365 340 q 324 339 353 339 m 481 515 q 529 627 529 549 q 490 743 529 706 q 325 781 450 781 l 289 781 l 289 486 l 304 486 q 481 515 442 486 z "},"S":{"ha":693,"x_min":40,"x_max":656,"o":"m 656 260 q 570 59 656 136 q 340 -18 485 -18 q 184 1 271 -18 q 40 46 97 19 l 92 211 q 333 153 219 153 q 463 253 463 153 q 419 336 463 301 q 303 405 376 371 q 198 457 229 439 q 129 508 167 475 q 58 690 58 571 q 142 878 58 810 q 351 946 226 946 q 618 893 475 946 l 563 742 q 368 782 449 782 q 251 690 253 782 q 276 634 251 653 q 313 608 301 615 q 358 583 324 600 q 421 549 392 565 q 474 519 450 533 q 539 474 499 504 q 600 417 579 443 q 656 260 656 347 z "},"T":{"ha":715,"x_min":14,"x_max":701,"o":"m 256 768 l 14 768 l 14 928 l 701 928 l 701 768 l 456 768 l 456 0 l 256 0 l 256 768 z "},"U":{"ha":842,"x_min":82,"x_max":760,"o":"m 82 342 l 82 926 l 283 926 l 283 349 q 311 192 283 229 q 422 150 339 150 q 531 193 504 150 q 558 349 558 229 l 558 926 l 760 926 l 760 342 q 694 89 760 181 q 421 -17 611 -14 q 146 89 231 -17 q 82 342 82 182 z "},"V":{"ha":768,"x_min":-6,"x_max":774,"o":"m 383 222 l 576 928 l 774 928 l 482 0 l 286 0 l -6 928 l 192 928 l 383 222 z "},"W":{"ha":1104,"x_min":50,"x_max":1054,"o":"m 479 850 l 625 850 l 819 228 l 869 928 l 1054 928 l 961 0 l 753 0 l 551 686 l 351 0 l 143 0 l 50 928 l 233 928 l 283 226 l 479 850 z "},"X":{"ha":833,"x_min":13,"x_max":821,"o":"m 821 0 l 597 0 l 413 321 l 226 0 l 13 0 l 311 464 l 26 926 l 240 926 l 415 611 l 589 926 l 806 926 l 517 472 l 821 0 z "},"Y":{"ha":761,"x_min":-11,"x_max":772,"o":"m 481 0 l 281 0 l 281 367 l -11 928 l 192 928 l 381 532 l 569 928 l 772 928 l 481 367 l 481 0 z "},"Z":{"ha":729,"x_min":44,"x_max":689,"o":"m 689 163 l 689 0 l 60 0 l 44 122 l 438 767 l 67 767 l 46 928 l 647 928 l 660 799 l 269 163 l 689 163 z "},"[":{"ha":481,"x_min":81,"x_max":443,"o":"m 81 -182 l 81 1039 l 443 1039 l 443 900 l 263 889 l 263 -33 l 443 -42 l 443 -182 l 81 -182 z "},"\\":{"ha":594,"x_min":26,"x_max":568,"o":"m 419 -164 l 26 1015 l 172 1058 l 568 -124 l 419 -164 z "},"]":{"ha":481,"x_min":38,"x_max":400,"o":"m 400 1039 l 400 -182 l 38 -182 l 38 -42 l 218 -33 l 218 889 l 38 900 l 38 1039 l 400 1039 z "},"^":{"ha":693,"x_min":39,"x_max":653,"o":"m 283 893 l 406 893 l 653 410 l 483 410 l 346 688 l 206 410 l 39 410 l 283 893 z "},"_":{"ha":742,"x_min":71,"x_max":671,"o":"m 671 151 l 671 0 l 71 0 l 71 151 l 671 151 z "},"`":{"ha":476,"x_min":81,"x_max":411,"o":"m 364 815 l 81 921 l 149 1075 l 411 924 l 364 815 z "},"a":{"ha":708,"x_min":29,"x_max":717,"o":"m 717 24 q 562 -15 646 -15 q 438 49 478 -15 q 249 -18 357 -18 q 85 37 140 -18 q 29 186 29 92 q 56 293 29 249 q 124 358 82 338 q 283 394 200 394 q 415 390 365 394 l 415 458 q 386 551 415 531 q 287 572 357 572 q 129 543 217 572 l 89 665 q 215 712 140 696 q 342 728 289 728 q 544 667 483 728 q 604 461 604 607 l 604 169 q 639 131 604 131 q 690 139 657 131 l 717 24 m 301 111 q 415 147 360 111 l 415 293 q 347 296 376 296 q 210 207 210 296 q 301 111 210 111 z "},"b":{"ha":751,"x_min":72,"x_max":706,"o":"m 267 974 l 267 667 q 345 708 296 690 q 444 725 394 725 q 632 638 558 725 q 706 390 706 551 q 625 87 706 192 q 367 -18 544 -18 q 203 -3 290 -18 q 72 31 115 11 l 72 974 l 267 974 m 339 139 q 472 197 435 139 q 510 367 510 256 q 480 522 510 478 q 389 567 450 567 q 267 529 328 567 l 267 146 q 339 139 304 139 z "},"c":{"ha":608,"x_min":44,"x_max":572,"o":"m 376 -18 q 139 74 233 -18 q 44 353 44 167 q 138 633 44 540 q 376 725 231 725 q 572 693 463 725 l 535 553 q 399 572 450 572 q 273 523 317 572 q 229 349 229 474 q 277 175 229 224 q 411 126 325 126 q 547 140 456 126 l 571 14 q 376 -18 461 -18 z "},"d":{"ha":742,"x_min":47,"x_max":668,"o":"m 47 339 q 349 725 47 725 q 472 700 425 725 l 472 986 l 668 986 l 668 -10 l 507 -10 l 496 43 q 311 -12 418 -12 q 114 82 181 -12 q 47 339 47 176 m 368 572 q 233 343 233 572 q 358 133 233 133 q 474 165 422 133 l 474 553 q 368 572 428 572 z "},"e":{"ha":667,"x_min":46,"x_max":622,"o":"m 228 336 q 411 128 231 128 q 579 160 496 128 l 613 28 q 375 -18 506 -18 q 46 369 46 -18 q 128 624 46 522 q 364 725 210 725 q 555 659 488 725 q 622 475 622 593 q 604 336 622 406 l 228 336 m 467 442 l 467 450 q 369 588 467 588 q 229 442 253 588 l 467 442 z "},"f":{"ha":568,"x_min":21,"x_max":658,"o":"m 618 851 q 479 865 560 865 q 372 834 399 865 q 346 732 346 803 l 346 711 l 558 711 l 546 578 l 346 578 l 346 -258 l 151 -239 l 151 578 l 21 586 l 21 700 l 153 710 l 153 750 q 231 958 153 893 q 472 1024 308 1024 q 658 990 556 1024 l 618 851 z "},"g":{"ha":681,"x_min":21,"x_max":683,"o":"m 393 -32 l 253 -32 q 182 -117 182 -56 q 340 -194 182 -194 q 499 -93 499 -194 q 476 -47 499 -62 q 393 -32 453 -32 m 319 582 q 224 457 224 582 q 247 368 224 396 q 319 340 269 340 q 392 368 369 340 q 414 459 414 396 q 392 552 414 522 q 319 582 369 582 m 315 729 l 438 722 q 667 743 546 722 l 683 636 q 539 613 657 629 q 588 458 588 544 q 519 264 588 339 q 321 189 450 189 q 247 196 275 189 q 239 153 239 171 q 318 107 239 107 l 438 107 q 604 59 544 107 q 664 -74 664 11 q 569 -268 664 -197 q 325 -339 475 -339 q 98 -288 175 -339 q 21 -144 21 -237 q 57 -42 21 -90 q 158 36 93 7 q 114 120 114 65 q 156 231 114 175 q 78 327 106 267 q 50 458 50 388 q 117 654 50 579 q 315 729 185 729 z "},"h":{"ha":758,"x_min":74,"x_max":689,"o":"m 268 649 q 367 703 310 681 q 482 725 424 725 q 583 708 540 725 q 649 656 626 690 q 689 488 689 593 l 689 0 l 486 0 l 486 453 q 449 558 486 542 q 400 567 431 567 q 268 515 322 567 l 268 0 l 74 0 l 74 968 l 268 981 l 268 649 z "},"i":{"ha":342,"x_min":56,"x_max":283,"o":"m 268 0 l 74 0 l 74 711 l 268 728 l 268 0 m 56 940 q 56 964 56 940 q 89 1021 56 988 q 169 1054 122 1054 q 250 1021 217 1054 q 283 941 283 988 q 250 860 283 894 q 169 825 217 825 q 89 859 122 825 q 56 940 56 893 z "},"j":{"ha":339,"x_min":-107,"x_max":286,"o":"m 267 71 q -92 -287 267 -269 l -107 -137 q 33 -72 -8 -121 q 74 83 74 -24 l 74 706 l 267 725 l 267 71 m 53 942 q 53 966 53 942 q 87 1024 53 990 q 169 1058 121 1058 q 252 1024 218 1058 q 286 942 286 990 q 252 859 286 894 q 169 824 218 824 q 87 858 121 824 q 53 942 53 893 z "},"k":{"ha":769,"x_min":74,"x_max":769,"o":"m 268 0 l 74 0 l 74 971 l 268 985 l 268 407 l 504 711 l 715 711 l 458 390 l 769 0 l 547 0 l 268 363 l 268 0 z "},"l":{"ha":429,"x_min":75,"x_max":435,"o":"m 435 13 q 297 -18 364 -18 q 188 -3 231 -18 q 123 32 144 13 q 90 89 101 51 q 77 152 79 126 q 75 224 75 178 l 75 972 l 271 972 l 271 213 q 283 156 271 172 q 331 139 294 139 q 406 149 367 139 l 435 13 z "},"m":{"ha":1161,"x_min":74,"x_max":1092,"o":"m 250 633 q 349 697 286 669 q 483 725 413 725 q 593 701 554 725 q 656 629 632 678 q 758 697 693 668 q 888 725 822 725 q 1049 663 1007 725 q 1092 488 1092 601 l 1092 0 l 897 0 l 897 453 q 860 558 897 542 q 811 567 842 567 q 679 515 733 567 q 681 486 681 506 l 681 0 l 486 0 l 486 453 q 449 558 486 542 q 400 567 431 567 q 268 515 322 567 l 268 0 l 74 0 l 74 713 l 233 713 l 250 633 z "},"n":{"ha":758,"x_min":74,"x_max":689,"o":"m 481 725 q 645 663 601 725 q 689 488 689 601 l 689 0 l 494 0 l 494 453 q 477 537 494 507 q 393 567 460 567 q 272 515 326 567 l 272 0 l 74 0 l 74 713 l 238 713 l 254 633 q 356 698 294 671 q 481 725 418 725 z "},"o":{"ha":710,"x_min":46,"x_max":664,"o":"m 664 354 q 578 72 664 161 q 351 -18 492 -18 q 128 71 211 -18 q 46 353 46 160 q 131 635 46 546 q 356 725 217 725 q 664 354 664 725 m 475 356 q 475 420 475 356 q 444 529 475 483 q 355 575 414 575 q 265 529 296 575 q 233 353 233 483 q 354 131 233 131 q 443 180 411 131 q 475 356 475 229 z "},"p":{"ha":747,"x_min":74,"x_max":701,"o":"m 439 725 q 635 629 568 725 q 701 369 701 533 q 383 -18 701 -18 q 268 7 331 -18 l 268 -274 l 74 -296 l 74 713 l 240 713 l 257 656 q 439 725 346 725 m 351 139 q 510 364 510 139 q 378 567 510 567 q 268 532 325 567 l 268 149 q 351 139 307 139 z "},"q":{"ha":751,"x_min":46,"x_max":679,"o":"m 485 26 q 303 -18 414 -18 q 119 69 193 -18 q 46 317 46 156 q 400 725 46 725 q 556 710 475 725 q 679 672 636 694 l 679 -308 l 485 -296 l 485 26 m 406 568 q 278 510 314 568 q 242 340 242 451 q 272 184 242 229 q 361 139 301 139 q 485 167 421 139 l 485 557 q 406 568 449 568 z "},"r":{"ha":524,"x_min":74,"x_max":519,"o":"m 428 569 q 268 504 314 569 l 268 0 l 74 0 l 74 713 l 235 713 l 250 622 q 456 728 331 728 q 519 721 490 728 l 488 561 q 428 569 457 569 z "},"s":{"ha":582,"x_min":32,"x_max":543,"o":"m 329 575 q 235 513 235 575 q 267 456 235 479 q 344 415 299 432 q 434 376 389 397 q 511 314 479 354 q 543 215 543 274 q 472 47 543 111 q 264 -18 401 -18 q 133 -4 201 -18 q 32 28 64 10 l 79 167 q 274 131 188 131 q 361 199 361 131 q 329 251 361 228 q 252 295 297 275 q 162 339 207 315 q 85 406 117 363 q 53 506 53 449 q 124 669 53 613 q 326 726 194 726 q 533 683 458 726 l 488 546 q 329 575 392 575 z "},"t":{"ha":560,"x_min":21,"x_max":547,"o":"m 146 229 l 146 578 l 21 586 l 21 700 l 150 711 l 150 874 l 344 890 l 344 713 l 547 713 l 536 578 l 343 578 l 343 211 q 356 153 343 171 q 408 136 368 136 q 499 149 449 136 l 528 11 q 390 -18 460 -18 q 284 -10 319 -18 q 226 10 249 -1 q 187 42 203 21 q 163 81 171 64 q 151 128 156 97 q 146 229 146 169 z "},"u":{"ha":754,"x_min":69,"x_max":681,"o":"m 504 65 q 277 -18 397 -18 q 113 44 157 -18 q 69 219 69 106 l 69 713 l 264 713 l 264 254 q 281 169 264 199 q 363 140 297 140 q 486 183 429 140 l 486 713 l 681 713 l 681 -18 l 521 -18 l 504 65 z "},"v":{"ha":710,"x_min":14,"x_max":699,"o":"m 354 156 l 503 713 l 699 713 l 476 0 l 232 0 l 14 713 l 210 713 l 354 156 z "},"w":{"ha":957,"x_min":29,"x_max":935,"o":"m 388 700 l 567 713 l 668 160 l 744 713 l 935 713 l 775 0 l 567 0 l 481 518 l 393 0 l 176 0 l 29 713 l 219 713 l 292 156 l 388 700 z "},"x":{"ha":732,"x_min":8,"x_max":721,"o":"m 703 713 l 482 367 l 721 0 l 515 0 l 367 265 l 217 0 l 8 0 l 256 369 l 33 713 l 242 713 l 371 474 l 500 713 l 703 713 z "},"y":{"ha":697,"x_min":-28,"x_max":681,"o":"m 118 -296 q -28 -271 56 -296 l 1 -136 q 43 -144 1 -137 q 97 -150 85 -150 q 208 -122 175 -150 q 267 18 240 -93 l 7 694 l 192 718 l 351 226 l 493 713 l 681 713 l 456 58 q 319 -223 383 -150 q 118 -296 254 -296 z "},"z":{"ha":626,"x_min":35,"x_max":601,"o":"m 251 132 l 585 132 l 601 0 l 51 0 l 35 104 l 347 578 l 63 578 l 49 711 l 547 711 l 565 603 l 251 132 z "},"{":{"ha":513,"x_min":25,"x_max":476,"o":"m 344 -49 l 476 -49 l 476 -181 l 353 -181 q 191 -117 251 -181 q 126 60 131 -53 q 123 165 125 92 q 120 257 121 238 q 119 294 119 276 q 117 321 118 313 q 114 340 117 329 q 85 361 107 361 l 25 361 l 25 506 l 85 506 q 117 546 114 506 q 119 600 119 571 q 126 807 124 740 q 191 983 131 919 q 353 1047 251 1047 l 476 1047 l 476 915 l 344 915 q 289 804 289 915 l 286 625 q 224 433 283 486 q 286 242 283 381 l 289 63 q 344 -49 289 -49 z "},"|":{"ha":325,"x_min":82,"x_max":243,"o":"m 82 -60 l 82 964 l 243 964 l 243 -60 l 82 -60 z "},"}":{"ha":513,"x_min":36,"x_max":488,"o":"m 168 915 l 36 915 l 36 1047 l 160 1047 q 322 983 261 1047 q 386 807 382 919 q 390 702 388 775 q 392 610 392 629 q 394 572 393 590 q 395 546 394 554 q 400 526 396 538 q 428 506 406 506 l 488 506 l 488 361 l 428 361 q 394 321 399 361 q 392 267 393 296 q 386 60 389 126 q 322 -117 382 -53 q 160 -181 261 -181 l 36 -181 l 36 -49 l 168 -49 q 224 63 224 -49 l 226 242 q 289 433 229 381 q 226 625 229 486 l 224 804 q 168 915 224 915 z "},"~":{"ha":788,"x_min":47,"x_max":742,"o":"m 553 428 q 654 492 610 428 l 742 415 q 542 272 661 272 q 382 318 476 272 q 233 364 288 364 q 135 300 179 364 l 47 376 q 238 521 128 521 q 415 471 310 521 q 553 428 513 428 z "},"":{"ha":0,"x_min":0,"x_max":0,"o":""}," ":{"ha":258,"x_min":0,"x_max":0,"o":""},"¡":{"ha":333,"x_min":51,"x_max":279,"o":"m 65 -247 l 96 428 l 242 428 l 268 -247 l 65 -247 m 279 622 q 279 599 279 622 q 246 542 279 575 q 165 508 213 508 q 85 542 118 508 q 51 622 51 575 q 85 703 51 668 q 165 738 118 738 q 246 703 213 738 q 279 622 279 669 z "},"¢":{"ha":611,"x_min":36,"x_max":564,"o":"m 390 689 q 265 640 308 689 q 221 465 221 590 q 269 292 221 340 q 403 243 317 243 q 539 257 447 243 l 563 131 q 424 100 490 108 l 432 -50 l 307 -50 l 315 101 q 114 210 192 118 q 36 470 36 301 q 113 731 36 639 q 315 838 189 822 l 307 999 l 432 999 l 422 839 q 564 810 475 835 l 526 669 q 390 689 442 689 z "},"£":{"ha":685,"x_min":50,"x_max":640,"o":"m 50 422 l 50 561 l 128 561 q 111 682 111 611 q 185 879 111 810 q 378 949 260 949 q 624 890 497 949 l 571 751 q 401 796 463 796 q 310 767 339 796 q 281 683 281 739 q 301 561 281 626 l 485 561 l 493 422 l 343 422 q 350 339 350 388 q 306 160 350 244 l 640 160 l 640 0 l 86 0 l 86 139 q 157 222 131 161 q 183 338 183 283 q 172 422 183 393 l 50 422 z "},"¤":{"ha":746,"x_min":43,"x_max":699,"o":"m 247 94 l 139 -44 l 43 29 l 153 169 q 93 350 93 249 q 160 533 93 451 q 54 665 160 533 l 150 739 l 254 606 q 378 631 314 631 q 492 608 443 631 q 594 739 556 693 l 689 665 l 592 539 q 667 349 667 457 q 596 160 667 242 l 699 29 l 603 -44 l 501 89 q 382 65 456 65 q 247 94 308 65 m 224 348 q 224 314 224 348 q 268 235 224 281 q 380 189 313 189 q 492 235 447 189 q 536 348 536 281 q 492 462 536 415 q 380 508 447 508 q 268 462 313 508 q 224 348 224 415 z "},"¥":{"ha":842,"x_min":29,"x_max":813,"o":"m 115 343 l 115 460 l 272 460 l 29 928 l 232 928 l 421 532 l 610 928 l 813 928 l 569 460 l 726 460 l 726 343 l 521 343 l 521 269 l 726 269 l 726 151 l 521 151 l 521 0 l 321 0 l 321 151 l 115 151 l 115 269 l 321 269 l 321 343 l 115 343 z "},"¦":{"ha":328,"x_min":83,"x_max":244,"o":"m 83 565 l 83 964 l 244 964 l 244 565 l 83 565 m 83 -60 l 83 336 l 244 336 l 244 -60 l 83 -60 z "},"§":{"ha":526,"x_min":33,"x_max":494,"o":"m 142 593 q 122 694 122 651 q 297 929 122 865 q 385 953 319 938 l 417 815 l 353 793 q 276 708 276 765 q 365 532 276 664 q 474 353 454 400 q 494 257 494 307 q 383 60 494 129 q 406 -43 406 15 q 384 -144 406 -101 q 322 -222 363 -187 q 142 -297 249 -283 l 110 -162 l 175 -142 q 250 -57 250 -115 q 239 -14 250 -32 q 204 56 219 33 q 173 103 189 78 q 148 142 157 128 q 117 188 139 156 q 56 291 79 242 q 33 399 33 340 q 142 593 33 521 m 314 178 q 339 233 339 206 q 324 298 339 260 q 213 472 310 336 q 189 419 189 450 q 205 349 189 388 q 293 207 221 310 l 314 178 z "},"¨":{"ha":497,"x_min":24,"x_max":471,"o":"m 24 925 q 24 945 24 925 q 51 993 24 965 q 119 1021 78 1021 q 188 993 160 1021 q 215 925 215 965 q 188 856 215 885 q 119 828 160 828 q 51 856 78 828 q 24 925 24 885 m 279 925 q 279 945 279 925 q 307 993 279 965 q 375 1021 335 1021 q 443 993 415 1021 q 471 925 471 965 q 443 856 471 885 q 375 828 415 828 q 307 856 335 828 q 279 925 279 885 z "},"©":{"ha":994,"x_min":53,"x_max":942,"o":"m 628 575 q 513 608 575 608 q 410 561 451 608 q 368 414 368 514 q 410 266 368 314 q 512 218 451 218 q 638 256 572 218 l 668 188 q 503 136 596 136 q 340 206 410 136 q 271 414 271 276 q 340 622 271 551 q 502 692 410 692 q 661 647 594 692 l 628 575 m 813 735 q 877 670 813 735 q 942 419 942 606 q 813 104 942 233 q 497 -25 683 -25 q 182 104 311 -25 q 53 419 53 233 q 182 735 53 606 q 497 864 311 864 q 813 735 683 864 m 741 165 q 789 216 741 165 q 838 419 838 267 q 741 672 838 572 q 497 771 644 771 q 253 670 350 771 q 156 417 156 569 q 253 163 156 264 q 497 63 350 63 q 741 165 644 63 z "},"ª":{"ha":475,"x_min":47,"x_max":431,"o":"m 431 585 q 343 561 389 561 q 274 594 297 561 q 169 560 228 560 q 78 591 110 560 q 48 682 47 622 q 92 767 49 742 q 185 793 136 793 q 260 790 233 793 l 260 826 q 244 874 260 863 q 195 885 229 885 q 104 867 161 885 l 79 940 q 219 976 138 976 q 335 942 301 976 q 368 828 368 908 l 368 665 q 384 649 368 649 q 415 654 400 649 l 431 585 m 246 732 l 225 733 q 153 685 153 733 q 199 638 153 638 q 260 656 231 638 l 260 732 l 246 732 z "},"«":{"ha":778,"x_min":50,"x_max":729,"o":"m 729 585 l 536 383 l 729 186 l 615 85 l 371 343 l 371 425 l 615 682 l 729 585 m 408 585 l 214 383 l 408 186 l 294 85 l 50 343 l 50 425 l 294 682 l 408 585 z "},"¬":{"ha":786,"x_min":71,"x_max":706,"o":"m 706 313 l 553 313 l 553 463 l 71 463 l 71 614 l 706 614 l 706 313 z "},"­":{"ha":707,"x_min":0,"x_max":0,"o":""},"®":{"ha":994,"x_min":53,"x_max":942,"o":"m 813 735 q 877 670 813 735 q 942 419 942 606 q 813 104 942 233 q 497 -25 683 -25 q 182 104 311 -25 q 53 419 53 233 q 182 735 53 606 q 497 864 311 864 q 813 735 683 864 m 741 165 q 789 216 741 165 q 838 419 838 267 q 741 672 838 572 q 497 771 644 771 q 253 670 350 771 q 156 417 156 569 q 253 163 156 264 q 497 63 350 63 q 741 165 644 63 m 460 690 q 669 529 669 690 q 618 401 669 443 q 572 375 597 383 q 631 294 576 367 q 715 189 686 222 l 657 146 q 492 361 571 239 q 438 358 456 358 l 408 358 l 408 154 l 326 154 l 326 690 l 460 690 m 550 446 q 583 527 583 469 q 550 606 583 585 q 449 628 517 628 l 408 628 l 408 424 l 436 424 q 550 446 524 424 z "},"¯":{"ha":739,"x_min":63,"x_max":676,"o":"m 676 903 l 676 751 l 63 751 l 63 903 l 676 903 z "},"°":{"ha":432,"x_min":49,"x_max":383,"o":"m 340 901 q 362 878 340 901 q 383 785 383 854 q 340 665 383 715 q 215 615 296 615 q 91 664 133 615 q 49 783 49 713 q 92 901 49 853 q 216 949 135 949 q 340 901 297 949 m 215 704 q 289 781 289 704 q 215 858 289 858 q 162 836 179 858 q 144 782 144 814 q 162 727 144 750 q 215 704 179 704 z "},"±":{"ha":710,"x_min":71,"x_max":639,"o":"m 432 260 l 278 260 l 278 463 l 71 463 l 71 615 l 278 615 l 278 817 l 432 817 l 432 615 l 639 615 l 639 463 l 432 463 l 432 260 m 638 153 l 638 1 l 72 1 l 72 153 l 638 153 z "},"²":{"ha":525,"x_min":64,"x_max":449,"o":"m 64 356 l 64 460 q 238 649 161 557 q 299 759 299 725 q 282 810 299 793 q 238 826 265 826 q 118 793 211 826 l 82 900 q 255 944 176 944 q 382 897 333 944 q 431 775 431 850 q 283 518 431 669 q 247 478 256 486 l 449 478 l 449 356 l 64 356 z "},"³":{"ha":510,"x_min":49,"x_max":422,"o":"m 211 617 l 143 617 l 143 714 l 210 714 q 269 781 269 714 q 213 828 269 828 q 103 801 156 828 l 67 900 q 233 944 156 944 q 356 903 310 944 q 403 792 403 861 q 354 678 403 724 q 422 545 422 636 q 368 400 422 454 q 228 346 314 346 q 49 404 142 346 l 97 507 q 224 464 168 464 q 273 484 254 464 q 292 539 292 504 q 211 617 292 617 z "},"´":{"ha":475,"x_min":69,"x_max":400,"o":"m 400 921 l 117 815 l 69 924 l 332 1075 l 400 921 z "},"µ":{"ha":838,"x_min":85,"x_max":808,"o":"m 346 -4 q 279 8 308 -4 l 279 -279 l 85 -279 l 85 713 l 279 713 l 279 254 q 296 169 279 199 q 378 140 313 140 q 501 183 444 140 l 501 713 l 696 713 l 696 169 q 731 131 696 131 q 782 139 749 131 l 808 24 q 657 -15 738 -15 q 519 74 553 -15 q 346 -4 442 -4 z "},"¶":{"ha":703,"x_min":29,"x_max":664,"o":"m 664 839 l 564 839 l 564 -225 l 461 -225 l 461 839 l 358 839 l 358 -225 l 250 -225 l 250 488 q 94 552 158 488 q 29 708 29 617 q 94 864 29 800 q 250 928 158 928 l 664 928 l 664 839 z "},"·":{"ha":344,"x_min":58,"x_max":286,"o":"m 58 365 q 58 389 58 365 q 92 446 58 413 q 172 479 125 479 q 253 446 219 479 q 286 366 286 413 q 253 285 286 319 q 172 250 219 250 q 92 284 125 250 q 58 365 58 318 z "},"¸":{"ha":383,"x_min":74,"x_max":322,"o":"m 322 -185 q 144 -410 322 -319 l 74 -319 q 154 -193 154 -260 q 125 -79 154 -154 l 297 -79 q 322 -185 322 -133 z "},"¹":{"ha":444,"x_min":17,"x_max":322,"o":"m 322 349 l 179 349 l 179 776 l 60 726 l 17 839 l 215 925 l 322 925 l 322 349 z "},"º":{"ha":451,"x_min":51,"x_max":400,"o":"m 400 768 q 351 609 400 660 q 224 558 303 558 q 98 608 144 558 q 51 766 51 657 q 100 926 51 875 q 226 976 149 976 q 400 768 400 976 m 274 863 q 266 875 274 863 q 226 888 258 888 q 178 863 194 888 q 161 767 161 838 q 226 646 161 646 q 290 767 290 646 q 274 863 290 838 z "},"»":{"ha":779,"x_min":51,"x_max":731,"o":"m 244 386 l 51 588 l 165 685 l 410 428 l 410 346 l 165 88 l 51 189 l 244 386 m 567 386 l 372 588 l 486 685 l 731 428 l 731 346 l 486 88 l 372 189 l 567 386 z "},"¼":{"ha":1214,"x_min":26,"x_max":1176,"o":"m 1176 151 l 1089 151 l 1089 0 l 957 0 l 957 151 l 729 151 l 729 228 l 924 567 l 1089 567 l 1089 251 l 1176 251 l 1176 151 m 957 251 l 957 424 l 865 251 l 957 251 m 332 378 l 189 378 l 189 806 l 69 756 l 26 868 l 225 954 l 332 954 l 332 378 m 863 1063 l 469 -117 l 321 -76 l 717 1106 l 863 1063 z "},"½":{"ha":1168,"x_min":26,"x_max":1125,"o":"m 332 378 l 189 378 l 189 806 l 69 756 l 26 868 l 225 954 l 332 954 l 332 378 m 740 -3 l 740 101 q 914 290 838 199 q 975 406 975 367 q 915 464 975 464 q 794 435 875 464 l 758 542 q 931 586 853 586 q 1058 539 1010 586 q 1107 417 1107 492 q 960 160 1107 311 q 924 119 932 129 l 1125 119 l 1125 -3 l 740 -3 m 840 1063 l 447 -117 l 299 -76 l 694 1106 l 840 1063 z "},"¾":{"ha":1214,"x_min":35,"x_max":1185,"o":"m 192 639 l 129 639 l 129 736 l 190 736 q 256 803 256 736 q 199 850 256 850 q 89 824 142 850 l 53 922 q 219 967 142 967 q 342 925 296 967 q 389 815 389 883 q 340 700 389 746 q 408 567 408 658 q 354 422 408 476 q 214 368 300 368 q 35 426 128 368 l 83 529 q 210 486 154 486 q 259 506 240 486 q 278 561 278 526 q 255 617 278 596 q 192 639 232 639 m 1185 151 l 1097 151 l 1097 0 l 965 0 l 965 151 l 738 151 l 738 228 l 932 567 l 1097 567 l 1097 251 l 1185 251 l 1185 151 m 965 251 l 965 424 l 874 251 l 965 251 m 874 1044 l 481 -135 l 332 -94 l 728 1088 l 874 1044 z "},"¿":{"ha":501,"x_min":29,"x_max":449,"o":"m 449 623 q 449 600 449 623 q 417 547 449 578 q 340 515 385 515 q 263 547 294 515 q 232 623 232 578 q 263 701 232 668 q 340 733 294 733 q 417 701 385 733 q 449 623 449 668 m 261 358 l 264 433 l 422 433 q 426 340 426 383 q 398 250 421 294 q 354 181 375 206 q 301 127 333 157 q 256 83 269 97 q 208 -19 208 36 q 436 -156 208 -135 l 401 -283 q 128 -203 228 -275 q 29 -31 29 -132 q 51 67 29 26 q 92 127 74 108 q 145 176 111 146 q 199 226 179 206 q 238 282 218 246 q 261 358 257 318 z "},"À":{"ha":789,"x_min":-6,"x_max":792,"o":"m 496 1017 l 213 1122 l 281 1276 l 543 1125 l 496 1017 m 792 0 l 594 0 l 529 219 l 261 219 l 197 0 l -6 0 l 289 928 l 501 928 l 792 0 m 486 371 l 394 736 l 304 371 l 486 371 z "},"Á":{"ha":789,"x_min":-6,"x_max":792,"o":"m 792 0 l 594 0 l 529 219 l 261 219 l 197 0 l -6 0 l 289 928 l 501 928 l 792 0 m 486 371 l 394 736 l 304 371 l 486 371 m 633 1126 l 350 1021 l 303 1129 l 565 1281 l 633 1126 z "},"Â":{"ha":789,"x_min":-6,"x_max":792,"o":"m 792 0 l 594 0 l 529 219 l 261 219 l 197 0 l -6 0 l 289 928 l 501 928 l 792 0 m 486 371 l 394 736 l 304 371 l 486 371 m 396 1106 l 279 988 l 190 1060 l 344 1225 l 447 1225 l 601 1060 l 513 988 l 396 1106 z "},"Ã":{"ha":789,"x_min":-6,"x_max":792,"o":"m 792 0 l 594 0 l 529 219 l 261 219 l 197 0 l -6 0 l 289 928 l 501 928 l 792 0 m 486 371 l 394 736 l 304 371 l 486 371 m 301 1210 q 320 1210 301 1210 q 401 1180 339 1210 q 495 1150 464 1150 q 567 1199 526 1150 l 635 1124 q 567 1051 610 1082 q 487 1019 525 1019 q 388 1049 449 1019 q 295 1079 326 1079 q 224 1031 264 1079 l 156 1106 q 222 1178 181 1147 q 301 1210 263 1210 z "},"Ä":{"ha":789,"x_min":-6,"x_max":792,"o":"m 792 0 l 594 0 l 529 219 l 261 219 l 197 0 l -6 0 l 289 928 l 501 928 l 792 0 m 486 371 l 394 736 l 304 371 l 486 371 m 172 1090 q 172 1110 172 1090 q 199 1158 172 1131 q 267 1186 226 1186 q 336 1158 308 1186 q 364 1090 364 1131 q 336 1022 364 1050 q 267 993 308 993 q 199 1022 226 993 q 172 1090 172 1050 m 428 1090 q 428 1110 428 1090 q 456 1158 428 1131 q 524 1186 483 1186 q 592 1158 564 1186 q 619 1090 619 1131 q 592 1022 619 1050 q 524 993 564 993 q 456 1022 483 993 q 428 1090 428 1050 z "},"Å":{"ha":789,"x_min":-6,"x_max":792,"o":"m 501 1233 q 519 1213 501 1233 q 538 1133 538 1193 q 500 1031 538 1074 q 393 989 463 989 q 288 1031 324 989 q 251 1132 251 1072 q 288 1233 251 1192 q 394 1274 325 1274 q 501 1233 464 1274 m 394 1076 q 444 1131 444 1076 q 395 1185 444 1185 q 346 1131 346 1185 q 358 1092 346 1108 q 394 1076 369 1076 m 792 0 l 594 0 l 529 219 l 261 219 l 197 0 l -6 0 l 289 928 l 501 928 l 792 0 m 486 371 l 394 736 l 304 371 l 486 371 z "},"Æ":{"ha":1135,"x_min":-10,"x_max":1076,"o":"m 501 371 l 501 793 l 339 371 l 501 371 m 514 -1 l 514 219 l 279 219 l 192 0 l -10 0 l 390 928 l 1064 928 l 1064 767 l 679 767 l 679 557 l 1042 557 l 1042 401 l 679 401 l 679 160 l 1076 160 l 1076 -1 l 514 -1 z "},"Ç":{"ha":721,"x_min":54,"x_max":681,"o":"m 671 7 q 467 -18 561 -18 q 305 6 374 -18 q 178 85 236 31 q 54 467 54 200 q 90 695 54 599 q 189 844 126 792 q 471 943 306 943 q 681 913 575 943 l 649 769 q 501 785 569 785 q 324 715 389 785 q 258 469 258 644 q 325 220 258 293 q 510 147 392 147 q 658 158 592 147 l 671 7 m 589 -185 q 411 -410 589 -319 l 340 -319 q 421 -193 421 -260 q 392 -79 421 -154 l 564 -79 q 589 -185 589 -133 z "},"È":{"ha":744,"x_min":89,"x_max":686,"o":"m 289 161 l 686 161 l 686 0 l 89 0 l 89 929 l 674 929 l 674 768 l 289 768 l 289 558 l 651 558 l 651 403 l 289 403 l 289 161 m 492 1017 l 208 1122 l 276 1276 l 539 1125 l 492 1017 z "},"É":{"ha":744,"x_min":89,"x_max":686,"o":"m 289 161 l 686 161 l 686 0 l 89 0 l 89 929 l 674 929 l 674 768 l 289 768 l 289 558 l 651 558 l 651 403 l 289 403 l 289 161 m 531 1126 l 247 1021 l 200 1129 l 463 1281 l 531 1126 z "},"Ê":{"ha":744,"x_min":89,"x_max":686,"o":"m 289 161 l 686 161 l 686 0 l 89 0 l 89 929 l 674 929 l 674 768 l 289 768 l 289 558 l 651 558 l 651 403 l 289 403 l 289 161 m 356 1106 l 239 988 l 150 1060 l 304 1225 l 407 1225 l 561 1060 l 472 988 l 356 1106 z "},"Ë":{"ha":744,"x_min":89,"x_max":686,"o":"m 289 161 l 686 161 l 686 0 l 89 0 l 89 929 l 674 929 l 674 768 l 289 768 l 289 558 l 651 558 l 651 403 l 289 403 l 289 161 m 149 1090 q 149 1110 149 1090 q 176 1158 149 1131 q 244 1186 203 1186 q 313 1158 285 1186 q 340 1090 340 1131 q 313 1022 340 1050 q 244 993 285 993 q 176 1022 203 993 q 149 1090 149 1050 m 404 1090 q 404 1110 404 1090 q 432 1158 404 1131 q 500 1186 460 1186 q 568 1158 540 1186 q 596 1090 596 1131 q 568 1022 596 1050 q 500 993 540 993 q 432 1022 460 993 q 404 1090 404 1050 z "},"Ì":{"ha":378,"x_min":-31,"x_max":300,"o":"m 289 928 l 289 0 l 89 0 l 89 928 l 289 928 m 253 1017 l -31 1122 l 38 1276 l 300 1125 l 253 1017 z "},"Í":{"ha":378,"x_min":65,"x_max":396,"o":"m 289 928 l 289 0 l 89 0 l 89 928 l 289 928 m 396 1126 l 113 1021 l 65 1129 l 328 1281 l 396 1126 z "},"Î":{"ha":378,"x_min":-22,"x_max":389,"o":"m 289 928 l 289 0 l 89 0 l 89 928 l 289 928 m 183 1106 l 67 988 l -22 1060 l 132 1225 l 235 1225 l 389 1060 l 300 988 l 183 1106 z "},"Ï":{"ha":378,"x_min":-49,"x_max":399,"o":"m 289 928 l 289 0 l 89 0 l 89 928 l 289 928 m -49 1090 q -49 1110 -49 1090 q -22 1158 -49 1131 q 47 1186 6 1186 q 115 1158 88 1186 q 143 1090 143 1131 q 115 1022 143 1050 q 47 993 88 993 q -22 1022 6 993 q -49 1090 -49 1050 m 207 1090 q 207 1110 207 1090 q 235 1158 207 1131 q 303 1186 263 1186 q 371 1158 343 1186 q 399 1090 399 1131 q 371 1022 399 1050 q 303 993 343 993 q 235 1022 263 993 q 207 1090 207 1050 z "},"Ð":{"ha":907,"x_min":29,"x_max":850,"o":"m 29 389 l 29 544 l 161 544 l 161 926 l 422 926 q 667 890 597 926 q 850 463 850 796 q 806 199 850 313 q 668 38 763 85 q 422 0 593 0 l 161 0 l 161 389 l 29 389 m 361 747 l 361 544 l 521 544 l 521 389 l 361 389 l 361 179 l 431 179 q 608 248 563 179 q 653 464 653 317 q 608 679 653 611 q 431 747 564 747 l 361 747 z "},"Ñ":{"ha":947,"x_min":89,"x_max":858,"o":"m 858 0 l 647 0 l 282 649 l 282 0 l 89 0 l 89 928 l 300 928 l 664 278 l 664 928 l 858 928 l 858 0 m 365 1210 q 384 1210 365 1210 q 465 1180 403 1210 q 559 1150 528 1150 q 631 1199 590 1150 l 699 1124 q 631 1051 674 1082 q 551 1019 589 1019 q 451 1049 513 1019 q 359 1079 390 1079 q 288 1031 328 1079 l 219 1106 q 285 1178 244 1147 q 365 1210 326 1210 z "},"Ò":{"ha":858,"x_min":54,"x_max":804,"o":"m 135 794 q 252 905 176 865 q 421 944 328 944 q 580 917 514 944 q 688 846 646 890 q 756 739 729 801 q 804 464 804 622 q 725 133 804 267 q 607 24 683 64 q 437 -17 531 -17 q 278 10 343 -17 q 171 82 213 38 q 103 189 129 126 q 54 464 54 306 q 135 794 54 660 m 288 235 q 308 194 288 235 q 429 153 328 153 q 571 235 531 153 q 611 439 611 318 q 597 626 611 560 q 542 737 583 692 q 438 782 500 782 q 340 758 376 782 q 283 688 303 733 q 247 460 247 603 q 288 235 247 318 m 536 1017 l 253 1122 l 321 1276 l 583 1125 l 536 1017 z "},"Ó":{"ha":858,"x_min":54,"x_max":804,"o":"m 135 794 q 252 905 176 865 q 421 944 328 944 q 580 917 514 944 q 688 846 646 890 q 756 739 729 801 q 804 464 804 622 q 725 133 804 267 q 607 24 683 64 q 437 -17 531 -17 q 278 10 343 -17 q 171 82 213 38 q 103 189 129 126 q 54 464 54 306 q 135 794 54 660 m 288 235 q 308 194 288 235 q 429 153 328 153 q 571 235 531 153 q 611 439 611 318 q 597 626 611 560 q 542 737 583 692 q 438 782 500 782 q 340 758 376 782 q 283 688 303 733 q 247 460 247 603 q 288 235 247 318 m 599 1126 l 315 1021 l 268 1129 l 531 1281 l 599 1126 z "},"Ô":{"ha":858,"x_min":54,"x_max":804,"o":"m 135 794 q 252 905 176 865 q 421 944 328 944 q 580 917 514 944 q 688 846 646 890 q 756 739 729 801 q 804 464 804 622 q 725 133 804 267 q 607 24 683 64 q 437 -17 531 -17 q 278 10 343 -17 q 171 82 213 38 q 103 189 129 126 q 54 464 54 306 q 135 794 54 660 m 288 235 q 308 194 288 235 q 429 153 328 153 q 571 235 531 153 q 611 439 611 318 q 597 626 611 560 q 542 737 583 692 q 438 782 500 782 q 340 758 376 782 q 283 688 303 733 q 247 460 247 603 q 288 235 247 318 m 431 1106 l 314 988 l 225 1060 l 379 1225 l 482 1225 l 636 1060 l 547 988 l 431 1106 z "},"Õ":{"ha":858,"x_min":54,"x_max":804,"o":"m 135 794 q 252 905 176 865 q 421 944 328 944 q 580 917 514 944 q 688 846 646 890 q 756 739 729 801 q 804 464 804 622 q 725 133 804 267 q 607 24 683 64 q 437 -17 531 -17 q 278 10 343 -17 q 171 82 213 38 q 103 189 129 126 q 54 464 54 306 q 135 794 54 660 m 288 235 q 308 194 288 235 q 429 153 328 153 q 571 235 531 153 q 611 439 611 318 q 597 626 611 560 q 542 737 583 692 q 438 782 500 782 q 340 758 376 782 q 283 688 303 733 q 247 460 247 603 q 288 235 247 318 m 331 1206 q 350 1206 331 1206 q 431 1176 369 1206 q 525 1146 493 1146 q 597 1194 557 1146 l 665 1119 q 598 1047 640 1078 q 517 1015 556 1015 q 418 1045 479 1015 q 326 1075 357 1075 q 254 1026 294 1075 l 186 1101 q 252 1174 211 1143 q 331 1206 293 1206 z "},"Ö":{"ha":858,"x_min":54,"x_max":804,"o":"m 135 794 q 252 905 176 865 q 421 944 328 944 q 580 917 514 944 q 688 846 646 890 q 756 739 729 801 q 804 464 804 622 q 725 133 804 267 q 607 24 683 64 q 437 -17 531 -17 q 278 10 343 -17 q 171 82 213 38 q 103 189 129 126 q 54 464 54 306 q 135 794 54 660 m 288 235 q 308 194 288 235 q 429 153 328 153 q 571 235 531 153 q 611 439 611 318 q 597 626 611 560 q 542 737 583 692 q 438 782 500 782 q 340 758 376 782 q 283 688 303 733 q 247 460 247 603 q 288 235 247 318 m 197 1090 q 197 1110 197 1090 q 224 1158 197 1131 q 292 1186 251 1186 q 361 1158 333 1186 q 389 1090 389 1131 q 361 1022 389 1050 q 292 993 333 993 q 224 1022 251 993 q 197 1090 197 1050 m 453 1090 q 453 1110 453 1090 q 481 1158 453 1131 q 549 1186 508 1186 q 617 1158 589 1186 q 644 1090 644 1131 q 617 1022 644 1050 q 549 993 589 993 q 481 1022 508 993 q 453 1090 453 1050 z "},"×":{"ha":717,"x_min":54,"x_max":663,"o":"m 663 211 l 554 104 l 360 296 l 165 101 l 54 208 l 249 403 l 57 593 l 167 703 l 357 513 l 549 703 l 660 594 l 469 406 l 663 211 z "},"Ø":{"ha":858,"x_min":54,"x_max":804,"o":"m 804 464 q 725 133 804 267 q 607 24 683 64 q 444 -17 531 -17 q 301 0 358 -17 l 239 -153 l 93 -103 l 169 82 q 54 464 54 204 q 135 794 54 660 q 252 905 176 865 q 431 944 328 944 q 524 935 483 944 l 583 1081 l 726 1028 l 661 869 q 804 464 804 750 m 429 153 q 571 235 531 153 q 611 458 611 318 q 581 675 611 599 l 368 163 q 429 153 393 153 m 247 451 q 263 306 247 368 l 458 779 q 429 782 439 782 q 283 688 324 782 q 247 451 247 603 z "},"Ù":{"ha":842,"x_min":82,"x_max":760,"o":"m 82 342 l 82 926 l 283 926 l 283 349 q 311 192 283 229 q 422 150 339 150 q 531 193 504 150 q 558 349 558 229 l 558 926 l 760 926 l 760 342 q 694 89 760 181 q 421 -17 611 -14 q 146 89 231 -17 q 82 342 82 182 m 531 1017 l 247 1122 l 315 1276 l 578 1125 l 531 1017 z "},"Ú":{"ha":842,"x_min":82,"x_max":760,"o":"m 82 342 l 82 926 l 283 926 l 283 349 q 311 192 283 229 q 422 150 339 150 q 531 193 504 150 q 558 349 558 229 l 558 926 l 760 926 l 760 342 q 694 89 760 181 q 421 -17 611 -14 q 146 89 231 -17 q 82 342 82 182 m 611 1126 l 328 1021 l 281 1129 l 543 1281 l 611 1126 z "},"Û":{"ha":842,"x_min":82,"x_max":760,"o":"m 82 342 l 82 926 l 283 926 l 283 349 q 311 192 283 229 q 422 150 339 150 q 531 193 504 150 q 558 349 558 229 l 558 926 l 760 926 l 760 342 q 694 89 760 181 q 421 -17 611 -14 q 146 89 231 -17 q 82 342 82 182 m 425 1106 l 308 988 l 219 1060 l 374 1225 l 476 1225 l 631 1060 l 542 988 l 425 1106 z "},"Ü":{"ha":842,"x_min":82,"x_max":760,"o":"m 82 342 l 82 926 l 283 926 l 283 349 q 311 192 283 229 q 422 150 339 150 q 531 193 504 150 q 558 349 558 229 l 558 926 l 760 926 l 760 342 q 694 89 760 181 q 421 -17 611 -14 q 146 89 231 -17 q 82 342 82 182 m 201 1090 q 201 1110 201 1090 q 228 1158 201 1131 q 297 1186 256 1186 q 365 1158 338 1186 q 393 1090 393 1131 q 365 1022 393 1050 q 297 993 338 993 q 228 1022 256 993 q 201 1090 201 1050 m 457 1090 q 457 1110 457 1090 q 485 1158 457 1131 q 553 1186 513 1186 q 621 1158 593 1186 q 649 1090 649 1131 q 621 1022 649 1050 q 553 993 593 993 q 485 1022 513 993 q 457 1090 457 1050 z "},"Ý":{"ha":761,"x_min":-11,"x_max":772,"o":"m 481 0 l 281 0 l 281 367 l -11 928 l 192 928 l 381 532 l 569 928 l 772 928 l 481 367 l 481 0 m 574 1126 l 290 1021 l 243 1129 l 506 1281 l 574 1126 z "},"Þ":{"ha":700,"x_min":89,"x_max":672,"o":"m 672 549 q 582 325 672 392 q 463 270 532 286 q 276 254 394 254 l 233 254 l 233 0 l 89 0 l 89 968 l 233 968 l 233 829 l 311 829 q 481 813 418 829 q 590 753 543 796 q 672 549 672 681 m 292 383 q 477 418 428 383 q 526 534 526 453 q 483 658 526 615 q 313 700 440 700 l 233 700 l 233 383 l 292 383 z "},"ß":{"ha":839,"x_min":74,"x_max":814,"o":"m 586 603 q 575 593 586 603 q 549 561 564 583 q 533 517 533 539 q 545 477 533 494 q 569 453 557 460 q 616 431 582 446 q 669 406 650 415 q 721 376 688 397 q 769 336 754 356 q 814 213 814 281 q 745 44 814 106 q 558 -18 676 -18 q 426 3 501 -18 q 314 51 351 25 l 363 188 q 565 133 492 133 q 639 201 639 133 q 609 251 639 229 q 537 291 579 272 q 453 333 494 310 q 381 401 411 357 q 351 500 351 446 q 374 594 351 554 q 424 657 397 635 q 496 761 496 718 q 400 850 496 850 q 297 810 329 850 q 265 685 265 771 l 265 -179 l 74 -179 l 74 688 q 160 923 74 846 q 394 1000 247 1000 q 612 938 542 1000 q 682 772 682 875 q 631 647 682 701 q 586 603 608 624 z "},"à":{"ha":708,"x_min":29,"x_max":717,"o":"m 717 24 q 562 -15 646 -15 q 438 49 478 -15 q 249 -18 357 -18 q 85 37 140 -18 q 29 186 29 92 q 56 293 29 249 q 124 358 82 338 q 283 394 200 394 q 415 390 365 394 l 415 458 q 386 551 415 531 q 287 572 357 572 q 129 543 217 572 l 89 665 q 215 712 140 696 q 342 728 289 728 q 544 667 483 728 q 604 461 604 607 l 604 169 q 639 131 604 131 q 690 139 657 131 l 717 24 m 301 111 q 415 147 360 111 l 415 293 q 347 296 376 296 q 210 207 210 296 q 301 111 210 111 m 444 815 l 161 921 l 229 1075 l 492 924 l 444 815 z "},"á":{"ha":708,"x_min":29,"x_max":717,"o":"m 717 24 q 562 -15 646 -15 q 438 49 478 -15 q 249 -18 357 -18 q 85 37 140 -18 q 29 186 29 92 q 56 293 29 249 q 124 358 82 338 q 283 394 200 394 q 415 390 365 394 l 415 458 q 386 551 415 531 q 287 572 357 572 q 129 543 217 572 l 89 665 q 215 712 140 696 q 342 728 289 728 q 544 667 483 728 q 604 461 604 607 l 604 169 q 639 131 604 131 q 690 139 657 131 l 717 24 m 301 111 q 415 147 360 111 l 415 293 q 347 296 376 296 q 210 207 210 296 q 301 111 210 111 m 499 921 l 215 815 l 168 924 l 431 1075 l 499 921 z "},"â":{"ha":708,"x_min":29,"x_max":717,"o":"m 332 939 l 215 821 l 126 893 l 281 1058 l 383 1058 l 538 893 l 449 821 l 332 939 m 717 24 q 562 -15 646 -15 q 438 49 478 -15 q 249 -18 357 -18 q 85 37 140 -18 q 29 186 29 92 q 56 293 29 249 q 124 358 82 338 q 283 394 200 394 q 415 390 365 394 l 415 458 q 386 551 415 531 q 287 572 357 572 q 129 543 217 572 l 89 665 q 215 712 140 696 q 342 728 289 728 q 544 667 483 728 q 604 461 604 607 l 604 169 q 639 131 604 131 q 690 139 657 131 l 717 24 m 301 111 q 415 147 360 111 l 415 293 q 347 296 376 296 q 210 207 210 296 q 301 111 210 111 z "},"ã":{"ha":708,"x_min":29,"x_max":717,"o":"m 717 24 q 562 -15 646 -15 q 438 49 478 -15 q 249 -18 357 -18 q 85 37 140 -18 q 29 186 29 92 q 56 293 29 249 q 124 358 82 338 q 283 394 200 394 q 415 390 365 394 l 415 458 q 386 551 415 531 q 287 572 357 572 q 129 543 217 572 l 89 665 q 215 712 140 696 q 342 728 289 728 q 544 667 483 728 q 604 461 604 607 l 604 169 q 639 131 604 131 q 690 139 657 131 l 717 24 m 301 111 q 415 147 360 111 l 415 293 q 347 296 376 296 q 210 207 210 296 q 301 111 210 111 m 235 1011 q 253 1011 235 1011 q 335 981 272 1011 q 429 951 397 951 q 501 1000 461 951 l 569 925 q 502 852 544 883 q 422 821 460 821 q 322 851 383 821 q 230 881 261 881 q 158 832 199 881 l 90 907 q 156 980 115 949 q 235 1011 197 1011 z "},"ä":{"ha":708,"x_min":29,"x_max":717,"o":"m 717 24 q 562 -15 646 -15 q 438 49 478 -15 q 249 -18 357 -18 q 85 37 140 -18 q 29 186 29 92 q 56 293 29 249 q 124 358 82 338 q 283 394 200 394 q 415 390 365 394 l 415 458 q 386 551 415 531 q 287 572 357 572 q 129 543 217 572 l 89 665 q 215 712 140 696 q 342 728 289 728 q 544 667 483 728 q 604 461 604 607 l 604 169 q 639 131 604 131 q 690 139 657 131 l 717 24 m 301 111 q 415 147 360 111 l 415 293 q 347 296 376 296 q 210 207 210 296 q 301 111 210 111 m 121 925 q 121 945 121 925 q 148 993 121 965 q 216 1021 175 1021 q 285 993 257 1021 q 313 925 313 965 q 285 856 313 885 q 216 828 257 828 q 148 856 175 828 q 121 925 121 885 m 376 925 q 376 945 376 925 q 404 993 376 965 q 472 1021 432 1021 q 540 993 513 1021 q 568 925 568 965 q 540 856 568 885 q 472 828 513 828 q 404 856 432 828 q 376 925 376 885 z "},"å":{"ha":708,"x_min":29,"x_max":717,"o":"m 717 24 q 562 -15 646 -15 q 438 49 478 -15 q 249 -18 357 -18 q 85 37 140 -18 q 29 186 29 92 q 56 293 29 249 q 124 358 82 338 q 283 394 200 394 q 415 390 365 394 l 415 458 q 386 551 415 531 q 287 572 357 572 q 129 543 217 572 l 89 665 q 215 712 140 696 q 342 728 289 728 q 544 667 483 728 q 604 461 604 607 l 604 169 q 639 131 604 131 q 690 139 657 131 l 717 24 m 301 111 q 415 147 360 111 l 415 293 q 347 296 376 296 q 210 207 210 296 q 301 111 210 111 m 444 1074 q 462 1053 444 1074 q 481 974 481 1033 q 443 872 481 914 q 336 829 406 829 q 231 871 267 829 q 194 972 194 913 q 231 1073 194 1032 q 338 1114 268 1114 q 444 1074 407 1114 m 338 917 q 388 971 388 917 q 338 1025 388 1025 q 289 971 289 1025 q 301 933 289 949 q 338 917 313 917 z "},"æ":{"ha":1036,"x_min":29,"x_max":992,"o":"m 597 336 q 781 128 600 128 q 949 160 865 128 l 982 28 q 741 -18 875 -18 q 526 60 607 -18 q 414 6 486 31 q 271 -18 342 -18 q 92 36 154 -18 q 29 186 29 90 q 56 293 29 249 q 124 358 82 338 q 288 394 200 394 q 425 390 375 394 l 425 458 q 396 551 425 531 q 292 572 367 572 q 129 543 217 572 l 89 665 q 215 712 140 696 q 354 728 289 728 q 466 708 419 728 q 539 635 513 689 q 731 725 604 725 q 924 659 857 725 q 992 475 992 593 q 974 336 992 417 l 597 336 m 210 207 q 318 111 210 111 q 475 147 421 111 q 439 293 449 207 q 357 296 400 296 q 210 207 210 296 m 836 442 l 836 450 q 735 588 836 588 q 593 442 617 588 l 836 442 z "},"ç":{"ha":608,"x_min":44,"x_max":572,"o":"m 490 -185 q 313 -410 490 -319 l 242 -319 q 322 -193 322 -260 q 293 -79 322 -154 l 465 -79 q 490 -185 490 -133 m 376 -18 q 139 74 233 -18 q 44 353 44 167 q 138 633 44 540 q 376 725 231 725 q 572 693 463 725 l 535 553 q 399 572 450 572 q 273 523 317 572 q 229 349 229 474 q 277 175 229 224 q 411 126 325 126 q 547 140 456 126 l 571 14 q 376 -18 461 -18 z "},"è":{"ha":667,"x_min":46,"x_max":622,"o":"m 464 815 l 181 921 l 249 1075 l 511 924 l 464 815 m 228 336 q 411 128 231 128 q 579 160 496 128 l 613 28 q 375 -18 506 -18 q 46 369 46 -18 q 128 624 46 522 q 364 725 210 725 q 555 659 488 725 q 622 475 622 593 q 604 336 622 406 l 228 336 m 467 442 l 467 450 q 369 588 467 588 q 229 442 253 588 l 467 442 z "},"é":{"ha":667,"x_min":46,"x_max":622,"o":"m 524 921 l 240 815 l 193 924 l 456 1075 l 524 921 m 228 336 q 411 128 231 128 q 579 160 496 128 l 613 28 q 375 -18 506 -18 q 46 369 46 -18 q 128 624 46 522 q 364 725 210 725 q 555 659 488 725 q 622 475 622 593 q 604 336 622 406 l 228 336 m 467 442 l 467 450 q 369 588 467 588 q 229 442 253 588 l 467 442 z "},"ê":{"ha":667,"x_min":46,"x_max":622,"o":"m 622 475 q 604 336 622 406 l 228 336 q 411 128 231 128 q 579 160 496 128 l 613 28 q 375 -18 506 -18 q 46 369 46 -18 q 128 624 46 522 q 364 725 210 725 q 555 659 488 725 q 622 475 622 593 m 467 442 l 467 450 q 369 588 467 588 q 229 442 253 588 l 467 442 m 356 939 l 239 821 l 150 893 l 304 1058 l 407 1058 l 561 893 l 472 821 l 356 939 z "},"ë":{"ha":667,"x_min":46,"x_max":622,"o":"m 133 925 q 133 945 133 925 q 160 993 133 965 q 228 1021 188 1021 q 297 993 269 1021 q 325 925 325 965 q 297 856 325 885 q 228 828 269 828 q 160 856 188 828 q 133 925 133 885 m 389 925 q 389 945 389 925 q 417 993 389 965 q 485 1021 444 1021 q 553 993 525 1021 q 581 925 581 965 q 553 856 581 885 q 485 828 525 828 q 417 856 444 828 q 389 925 389 885 m 228 336 q 411 128 231 128 q 579 160 496 128 l 613 28 q 375 -18 506 -18 q 46 369 46 -18 q 128 624 46 522 q 364 725 210 725 q 555 659 488 725 q 622 475 622 593 q 604 336 622 406 l 228 336 m 467 442 l 467 450 q 369 588 467 588 q 229 442 253 588 l 467 442 z "},"ì":{"ha":342,"x_min":-26,"x_max":304,"o":"m 257 815 l -26 921 l 42 1075 l 304 924 l 257 815 m 268 0 l 74 0 l 74 711 l 268 728 l 268 0 z "},"í":{"ha":342,"x_min":53,"x_max":383,"o":"m 383 921 l 100 815 l 53 924 l 315 1075 l 383 921 m 268 0 l 74 0 l 74 711 l 268 728 l 268 0 z "},"î":{"ha":342,"x_min":-29,"x_max":382,"o":"m 176 939 l 60 821 l -29 893 l 125 1058 l 228 1058 l 382 893 l 293 821 l 176 939 m 268 0 l 74 0 l 74 711 l 268 728 l 268 0 z "},"ï":{"ha":342,"x_min":-44,"x_max":403,"o":"m -44 925 q -44 945 -44 925 q -17 993 -44 965 q 51 1021 10 1021 q 119 993 92 1021 q 147 925 147 965 q 119 856 147 885 q 51 828 92 828 q -17 856 10 828 q -44 925 -44 885 m 211 925 q 211 945 211 925 q 239 993 211 965 q 307 1021 267 1021 q 375 993 347 1021 q 403 925 403 965 q 375 856 403 885 q 307 828 347 828 q 239 856 267 828 q 211 925 211 885 m 268 0 l 74 0 l 74 711 l 268 728 l 268 0 z "},"ð":{"ha":693,"x_min":49,"x_max":640,"o":"m 640 426 q 562 83 640 183 q 342 -17 483 -17 q 124 83 200 -17 q 49 335 49 182 q 117 563 49 489 q 301 638 185 638 q 432 607 379 638 q 344 793 417 728 l 242 688 l 158 768 l 238 849 q 74 871 179 865 l 99 999 q 353 964 249 999 l 446 1061 l 526 978 l 461 911 q 640 426 640 783 m 235 339 q 342 144 235 144 q 399 169 376 144 q 447 465 447 222 q 333 488 403 488 q 235 339 235 485 z "},"ñ":{"ha":758,"x_min":74,"x_max":689,"o":"m 276 1011 q 295 1011 276 1011 q 376 981 314 1011 q 470 951 439 951 q 542 1000 501 951 l 610 925 q 542 852 585 883 q 462 821 500 821 q 363 851 424 821 q 270 881 301 881 q 199 832 239 881 l 131 907 q 197 980 156 949 q 276 1011 238 1011 m 481 725 q 645 663 601 725 q 689 488 689 601 l 689 0 l 494 0 l 494 453 q 477 537 494 507 q 393 567 460 567 q 272 515 326 567 l 272 0 l 74 0 l 74 713 l 238 713 l 254 633 q 356 698 294 671 q 481 725 418 725 z "},"ò":{"ha":710,"x_min":46,"x_max":664,"o":"m 664 354 q 578 72 664 161 q 351 -18 492 -18 q 128 71 211 -18 q 46 353 46 160 q 131 635 46 546 q 356 725 217 725 q 664 354 664 725 m 475 356 q 475 420 475 356 q 444 529 475 483 q 355 575 414 575 q 265 529 296 575 q 233 353 233 483 q 354 131 233 131 q 443 180 411 131 q 475 356 475 229 m 465 815 l 182 921 l 250 1075 l 513 924 l 465 815 z "},"ó":{"ha":710,"x_min":46,"x_max":664,"o":"m 664 354 q 578 72 664 161 q 351 -18 492 -18 q 128 71 211 -18 q 46 353 46 160 q 131 635 46 546 q 356 725 217 725 q 664 354 664 725 m 475 356 q 475 420 475 356 q 444 529 475 483 q 355 575 414 575 q 265 529 296 575 q 233 353 233 483 q 354 131 233 131 q 443 180 411 131 q 475 356 475 229 m 567 921 l 283 815 l 236 924 l 499 1075 l 567 921 z "},"ô":{"ha":710,"x_min":46,"x_max":664,"o":"m 351 -18 q 281 -18 351 -18 q 128 71 211 -18 q 46 353 46 160 q 131 635 46 546 q 356 725 217 725 q 664 354 664 725 q 578 72 664 161 q 351 -18 492 -18 m 355 575 q 325 575 355 575 q 265 529 296 575 q 233 353 233 483 q 354 131 233 131 q 443 180 411 131 q 475 356 475 229 q 444 529 475 483 q 355 575 414 575 m 351 939 l 235 821 l 146 893 l 300 1058 l 403 1058 l 557 893 l 468 821 l 351 939 z "},"õ":{"ha":710,"x_min":46,"x_max":664,"o":"m 664 354 q 578 72 664 161 q 351 -18 492 -18 q 128 71 211 -18 q 46 353 46 160 q 131 635 46 546 q 356 725 217 725 q 664 354 664 725 m 475 356 q 475 420 475 356 q 444 529 475 483 q 355 575 414 575 q 265 529 296 575 q 233 353 233 483 q 354 131 233 131 q 443 180 411 131 q 475 356 475 229 m 257 1011 q 276 1011 257 1011 q 357 981 294 1011 q 451 951 419 951 q 524 1000 483 951 l 592 925 q 524 852 567 883 q 444 821 482 821 q 344 851 406 821 q 252 881 283 881 q 181 832 221 881 l 113 907 q 178 980 138 949 q 257 1011 219 1011 z "},"ö":{"ha":710,"x_min":46,"x_max":664,"o":"m 664 354 q 578 72 664 161 q 351 -18 492 -18 q 128 71 211 -18 q 46 353 46 160 q 131 635 46 546 q 356 725 217 725 q 664 354 664 725 m 475 356 q 475 420 475 356 q 444 529 475 483 q 355 575 414 575 q 265 529 296 575 q 233 353 233 483 q 354 131 233 131 q 443 180 411 131 q 475 356 475 229 m 128 925 q 128 945 128 925 q 155 993 128 965 q 223 1021 182 1021 q 292 993 264 1021 q 319 925 319 965 q 292 856 319 885 q 223 828 264 828 q 155 856 182 828 q 128 925 128 885 m 383 925 q 383 945 383 925 q 411 993 383 965 q 479 1021 439 1021 q 547 993 519 1021 q 575 925 575 965 q 547 856 575 885 q 479 828 519 828 q 411 856 439 828 q 383 925 383 885 z "},"÷":{"ha":746,"x_min":56,"x_max":690,"o":"m 282 609 q 282 627 282 609 q 309 671 282 646 q 374 696 336 696 q 437 671 411 696 q 463 609 463 646 q 437 544 463 572 q 374 517 411 517 q 309 544 336 517 q 282 609 282 572 m 690 461 l 690 310 l 56 310 l 56 461 l 690 461 m 282 163 q 282 182 282 163 q 309 225 282 200 q 374 250 336 250 q 437 225 411 250 q 463 163 463 200 q 437 99 463 126 q 374 71 411 71 q 309 99 336 71 q 282 163 282 126 z "},"ø":{"ha":710,"x_min":46,"x_max":664,"o":"m 135 63 q 46 352 46 158 q 131 635 46 546 q 356 725 217 725 q 454 714 406 725 l 510 829 l 614 779 l 557 661 q 664 365 664 569 q 578 72 664 161 q 347 -18 492 -18 q 235 0 292 -18 l 182 -108 l 75 -60 l 135 63 m 354 131 q 443 180 411 131 q 475 329 475 229 q 465 472 475 429 l 304 142 q 354 131 325 131 m 356 575 q 265 529 296 575 q 233 353 233 483 q 239 274 233 318 l 385 572 q 356 575 365 575 z "},"ù":{"ha":754,"x_min":69,"x_max":681,"o":"m 504 65 q 277 -18 397 -18 q 113 44 157 -18 q 69 219 69 106 l 69 713 l 264 713 l 264 254 q 281 169 264 199 q 363 140 297 140 q 486 183 429 140 l 486 713 l 681 713 l 681 -18 l 521 -18 l 504 65 m 431 815 l 147 921 l 215 1075 l 478 924 l 431 815 z "},"ú":{"ha":754,"x_min":69,"x_max":681,"o":"m 504 65 q 277 -18 397 -18 q 113 44 157 -18 q 69 219 69 106 l 69 713 l 264 713 l 264 254 q 281 169 264 199 q 363 140 297 140 q 486 183 429 140 l 486 713 l 681 713 l 681 -18 l 521 -18 l 504 65 m 593 921 l 310 815 l 263 924 l 525 1075 l 593 921 z "},"û":{"ha":754,"x_min":69,"x_max":681,"o":"m 504 65 q 277 -18 397 -18 q 113 44 157 -18 q 69 219 69 106 l 69 713 l 264 713 l 264 254 q 281 169 264 199 q 363 140 297 140 q 486 183 429 140 l 486 713 l 681 713 l 681 -18 l 521 -18 l 504 65 m 375 939 l 258 821 l 169 893 l 324 1058 l 426 1058 l 581 893 l 492 821 l 375 939 z "},"ü":{"ha":754,"x_min":69,"x_max":681,"o":"m 504 65 q 277 -18 397 -18 q 113 44 157 -18 q 69 219 69 106 l 69 713 l 264 713 l 264 254 q 281 169 264 199 q 363 140 297 140 q 486 183 429 140 l 486 713 l 681 713 l 681 -18 l 521 -18 l 504 65 m 156 925 q 156 945 156 925 q 183 993 156 965 q 251 1021 210 1021 q 319 993 292 1021 q 347 925 347 965 q 319 856 347 885 q 251 828 292 828 q 183 856 210 828 q 156 925 156 885 m 411 925 q 411 945 411 925 q 439 993 411 965 q 507 1021 467 1021 q 575 993 547 1021 q 603 925 603 965 q 575 856 603 885 q 507 828 547 828 q 439 856 467 828 q 411 925 411 885 z "},"ý":{"ha":697,"x_min":-28,"x_max":681,"o":"m 118 -296 q -28 -271 56 -296 l 1 -136 q 43 -144 1 -137 q 97 -150 85 -150 q 208 -122 175 -150 q 267 18 240 -93 l 7 694 l 192 718 l 351 226 l 493 713 l 681 713 l 456 58 q 319 -223 383 -150 q 118 -296 254 -296 m 575 921 l 292 815 l 244 924 l 507 1075 l 575 921 z "},"þ":{"ha":753,"x_min":74,"x_max":707,"o":"m 268 -294 l 74 -294 l 74 974 l 268 974 l 268 667 q 347 708 297 690 q 446 725 396 725 q 633 638 560 725 q 707 390 707 551 q 374 -18 707 -18 q 268 4 319 -18 l 268 -294 m 340 139 q 474 197 436 139 q 511 367 511 256 q 481 522 511 478 q 390 567 451 567 q 268 529 329 567 l 268 146 q 340 139 306 139 z "},"ÿ":{"ha":697,"x_min":-28,"x_max":681,"o":"m 118 -296 q -28 -271 56 -296 l 1 -136 q 43 -144 1 -137 q 97 -150 85 -150 q 208 -122 175 -150 q 267 18 240 -93 l 7 694 l 192 718 l 351 226 l 493 713 l 681 713 l 456 58 q 319 -223 383 -150 q 118 -296 254 -296 m 121 925 q 121 945 121 925 q 148 993 121 965 q 216 1021 175 1021 q 285 993 257 1021 q 313 925 313 965 q 285 856 313 885 q 216 828 257 828 q 148 856 175 828 q 121 925 121 885 m 376 925 q 376 945 376 925 q 404 993 376 965 q 472 1021 432 1021 q 540 993 513 1021 q 568 925 568 965 q 540 856 568 885 q 472 828 513 828 q 404 856 432 828 q 376 925 376 885 z "},"ı":{"ha":342,"x_min":74,"x_max":268,"o":"m 268 0 l 74 0 l 74 711 l 268 728 l 268 0 z "},"Ł":{"ha":717,"x_min":24,"x_max":703,"o":"m 582 532 l 582 381 l 349 381 l 349 161 l 703 161 l 703 0 l 147 0 l 147 381 l 24 381 l 24 532 l 147 532 l 147 928 l 349 928 l 349 532 l 582 532 z "},"ł":{"ha":611,"x_min":33,"x_max":592,"o":"m 506 13 q 368 -18 435 -18 q 258 -3 301 -18 q 194 32 215 13 q 161 89 172 51 q 148 152 150 126 q 146 224 146 178 l 146 381 l 33 381 l 33 532 l 146 532 l 146 972 l 342 972 l 342 532 l 592 532 l 592 381 l 342 381 l 342 213 q 353 156 342 172 q 401 139 365 139 q 476 149 438 139 l 506 13 z "},"Œ":{"ha":1268,"x_min":54,"x_max":1210,"o":"m 440 944 q 640 886 553 944 l 640 929 l 1197 929 l 1197 768 l 793 768 l 793 558 l 1175 558 l 1175 403 l 793 403 l 793 161 l 1210 161 l 1210 0 l 640 0 l 640 43 q 426 -17 554 -17 q 103 189 189 -17 q 54 464 54 306 q 135 794 54 660 q 440 944 224 944 m 288 235 q 308 194 288 235 q 429 153 328 153 q 571 235 531 153 q 611 439 611 318 q 597 626 611 560 q 542 737 583 692 q 438 782 500 782 q 340 758 376 782 q 283 688 303 733 q 247 460 247 603 q 288 235 247 318 z "},"œ":{"ha":1115,"x_min":46,"x_max":1071,"o":"m 854 128 q 1028 160 944 128 l 1061 28 q 824 -18 956 -18 q 578 93 656 -18 q 356 -18 501 -18 q 128 71 211 -18 q 46 353 46 160 q 131 635 46 546 q 363 725 217 725 q 582 613 510 725 q 813 725 660 725 q 1003 659 936 725 q 1071 475 1071 593 q 1053 336 1071 406 l 669 336 q 854 128 671 128 m 481 356 q 481 419 481 356 q 449 529 481 483 q 357 575 418 575 q 265 529 296 575 q 233 353 233 483 q 354 131 233 131 q 448 179 415 131 q 481 356 481 228 m 915 442 l 915 450 q 818 588 915 588 q 681 483 715 588 q 671 442 675 464 l 915 442 z "},"Š":{"ha":694,"x_min":40,"x_max":656,"o":"m 656 260 q 570 59 656 136 q 340 -18 485 -18 q 184 1 271 -18 q 40 46 97 19 l 92 211 q 333 153 219 153 q 463 253 463 153 q 419 336 463 301 q 303 405 376 371 q 198 457 229 439 q 129 508 167 475 q 58 690 58 571 q 142 878 58 810 q 351 946 226 946 q 618 893 475 946 l 563 742 q 368 782 449 782 q 251 690 253 782 q 276 634 251 653 q 313 608 301 615 q 358 583 324 600 q 421 549 392 565 q 474 519 450 533 q 539 474 499 504 q 600 417 579 443 q 656 260 656 347 m 211 1244 l 328 1126 l 444 1244 l 533 1172 l 379 1007 l 276 1007 l 122 1172 l 211 1244 z "},"š":{"ha":582,"x_min":32,"x_max":543,"o":"m 183 1032 l 300 914 l 417 1032 l 506 960 l 351 794 l 249 794 l 94 960 l 183 1032 m 329 575 q 235 513 235 575 q 267 456 235 479 q 344 415 299 432 q 434 376 389 397 q 511 314 479 354 q 543 215 543 274 q 472 47 543 111 q 264 -18 401 -18 q 133 -4 201 -18 q 32 28 64 10 l 79 167 q 274 131 188 131 q 361 199 361 131 q 329 251 361 228 q 252 295 297 275 q 162 339 207 315 q 85 406 117 363 q 53 506 53 449 q 124 669 53 613 q 326 726 194 726 q 533 683 458 726 l 488 546 q 329 575 392 575 z "},"Ÿ":{"ha":761,"x_min":-11,"x_max":772,"o":"m 481 0 l 281 0 l 281 367 l -11 928 l 192 928 l 381 532 l 569 928 l 772 928 l 481 367 l 481 0 m 150 1090 q 150 1110 150 1090 q 177 1158 150 1131 q 245 1186 204 1186 q 314 1158 286 1186 q 342 1090 342 1131 q 314 1022 342 1050 q 245 993 286 993 q 177 1022 204 993 q 150 1090 150 1050 m 406 1090 q 406 1110 406 1090 q 433 1158 406 1131 q 501 1186 461 1186 q 569 1158 542 1186 q 597 1090 597 1131 q 569 1022 597 1050 q 501 993 542 993 q 433 1022 461 993 q 406 1090 406 1050 z "},"Ž":{"ha":729,"x_min":44,"x_max":689,"o":"m 689 163 l 689 0 l 60 0 l 44 122 l 438 767 l 67 767 l 46 928 l 647 928 l 660 799 l 269 163 l 689 163 m 257 1244 l 374 1126 l 490 1244 l 579 1172 l 425 1007 l 322 1007 l 168 1172 l 257 1244 z "},"ž":{"ha":626,"x_min":35,"x_max":601,"o":"m 251 132 l 585 132 l 601 0 l 51 0 l 35 104 l 347 578 l 63 578 l 49 711 l 547 711 l 565 603 l 251 132 m 197 1031 l 314 913 l 431 1031 l 519 958 l 365 793 l 263 793 l 108 958 l 197 1031 z "},"ƒ":{"ha":867,"x_min":24,"x_max":843,"o":"m 336 -46 l 336 578 l 206 586 l 206 700 l 338 710 l 338 750 q 415 958 338 893 q 657 1024 493 1024 q 843 990 740 1024 l 803 851 q 664 865 744 865 q 557 834 583 865 q 531 732 531 803 l 531 711 l 743 711 l 731 578 l 531 578 l 531 -64 q 452 -272 531 -207 q 210 -337 374 -337 q 24 -304 126 -337 l 64 -165 q 203 -179 124 -179 q 310 -148 283 -179 q 336 -46 336 -117 z "},"ˆ":{"ha":528,"x_min":58,"x_max":469,"o":"m 264 939 l 147 821 l 58 893 l 213 1058 l 315 1058 l 469 893 l 381 821 l 264 939 z "},"ˇ":{"ha":567,"x_min":85,"x_max":496,"o":"m 174 1031 l 290 913 l 407 1031 l 496 958 l 342 793 l 239 793 l 85 958 l 174 1031 z "},"˘":{"ha":417,"x_min":58,"x_max":358,"o":"m 153 914 q 166 869 153 890 q 209 849 179 849 q 252 869 239 849 q 265 914 265 889 l 358 914 q 319 806 358 851 q 207 761 281 761 q 96 806 133 761 q 58 914 58 850 l 153 914 z "},"˙":{"ha":306,"x_min":39,"x_max":267,"o":"m 39 831 q 39 854 39 831 q 72 911 39 878 q 153 944 106 944 q 233 911 200 944 q 267 831 267 878 q 233 750 267 785 q 153 715 200 715 q 72 749 106 715 q 39 831 39 783 z "},"˚":{"ha":413,"x_min":58,"x_max":344,"o":"m 308 1074 q 326 1053 308 1074 q 344 974 344 1033 q 307 872 344 914 q 200 829 269 829 q 94 871 131 829 q 58 972 58 913 q 95 1073 58 1032 q 201 1114 132 1114 q 308 1074 271 1114 m 201 917 q 251 971 251 917 q 202 1025 251 1025 q 153 971 153 1025 q 165 933 153 949 q 201 917 176 917 z "},"˛":{"ha":429,"x_min":63,"x_max":364,"o":"m 222 -146 q 274 -186 222 -186 q 339 -174 300 -186 l 364 -303 q 210 -337 279 -337 q 101 -298 140 -337 q 63 -203 63 -258 q 85 -100 63 -149 q 147 -18 108 -51 l 300 -18 q 222 -146 222 -87 z "},"˜":{"ha":658,"x_min":92,"x_max":571,"o":"m 237 1011 q 256 1011 237 1011 q 338 981 275 1011 q 431 951 400 951 q 503 1000 463 951 l 571 925 q 503 852 546 883 q 423 821 461 821 q 324 851 385 821 q 231 881 263 881 q 160 832 200 881 l 92 907 q 158 980 117 949 q 237 1011 199 1011 z "},"˝":{"ha":742,"x_min":65,"x_max":676,"o":"m 369 894 l 151 686 l 65 767 l 246 1008 l 369 894 m 676 894 l 458 686 l 372 767 l 553 1008 l 676 894 z "},"–":{"ha":776,"x_min":71,"x_max":706,"o":"m 706 461 l 706 310 l 71 310 l 71 461 l 706 461 z "},"—":{"ha":985,"x_min":71,"x_max":914,"o":"m 914 461 l 914 310 l 71 310 l 71 461 l 914 461 z "},"‘":{"ha":307,"x_min":57,"x_max":324,"o":"m 57 740 q 181 1000 57 886 l 324 1000 q 210 761 210 868 q 233 661 210 715 l 74 661 q 57 740 57 697 z "},"’":{"ha":353,"x_min":44,"x_max":311,"o":"m 311 892 q 188 632 311 746 l 44 632 q 158 871 158 764 q 135 971 158 917 l 294 971 q 311 892 311 935 z "},"‚":{"ha":303,"x_min":-28,"x_max":239,"o":"m 239 82 q 115 -178 239 -64 l -28 -178 q 86 61 86 -46 q 63 161 86 107 l 222 161 q 239 82 239 125 z "},"“":{"ha":571,"x_min":57,"x_max":588,"o":"m 57 740 q 181 1000 57 886 l 324 1000 q 210 761 210 868 q 233 661 210 715 l 74 661 q 57 740 57 697 m 321 740 q 444 1000 321 886 l 588 1000 q 474 761 474 868 q 497 661 474 715 l 338 661 q 321 740 321 697 z "},"”":{"ha":617,"x_min":44,"x_max":575,"o":"m 575 892 q 451 632 575 746 l 308 632 q 422 871 422 764 q 399 971 422 917 l 558 971 q 575 892 575 935 m 311 892 q 188 632 311 746 l 44 632 q 158 871 158 764 q 135 971 158 917 l 294 971 q 311 892 311 935 z "},"„":{"ha":567,"x_min":-28,"x_max":503,"o":"m 239 82 q 115 -178 239 -64 l -28 -178 q 86 61 86 -46 q 63 161 86 107 l 222 161 q 239 82 239 125 m 503 82 q 379 -178 503 -64 l 236 -178 q 350 61 350 -46 q 326 161 350 107 l 486 161 q 503 82 503 125 z "},"†":{"ha":581,"x_min":33,"x_max":547,"o":"m 547 667 l 547 544 l 322 565 l 357 0 l 210 0 l 244 565 l 33 544 l 33 667 l 244 646 l 207 929 l 360 929 l 322 646 l 547 667 z "},"‡":{"ha":582,"x_min":60,"x_max":522,"o":"m 353 474 l 324 299 l 522 317 l 522 208 l 324 226 l 357 0 l 226 0 l 258 226 l 60 208 l 60 317 l 258 299 l 231 474 l 258 638 l 60 619 l 60 729 l 258 710 l 226 936 l 357 936 l 324 710 l 522 729 l 522 619 l 324 638 l 353 474 z "},"•":{"ha":496,"x_min":86,"x_max":410,"o":"m 133 320 q 109 343 133 320 q 86 436 86 367 q 133 552 86 506 q 248 599 179 599 q 363 552 317 599 q 410 436 410 506 q 363 320 410 367 q 248 274 317 274 q 133 320 179 274 z "},"…":{"ha":975,"x_min":54,"x_max":922,"o":"m 54 106 q 54 129 54 106 q 88 186 54 153 q 168 219 121 219 q 249 186 215 219 q 282 106 282 153 q 249 25 282 60 q 168 -10 215 -10 q 88 24 121 -10 q 54 106 54 58 m 375 106 q 375 129 375 106 q 408 186 375 153 q 489 219 442 219 q 569 186 536 219 q 603 106 603 153 q 569 25 603 60 q 489 -10 536 -10 q 408 24 442 -10 q 375 106 375 58 m 694 106 q 694 129 694 106 q 728 186 694 153 q 808 219 761 219 q 889 186 856 219 q 922 106 922 153 q 889 25 922 60 q 808 -10 856 -10 q 728 24 761 -10 q 694 106 694 58 z "},"‰":{"ha":1608,"x_min":32,"x_max":1576,"o":"m 230 438 q 184 438 230 438 q 85 493 139 438 q 32 704 32 549 q 104 925 32 865 q 253 975 164 975 q 397 918 343 975 q 451 706 451 861 q 381 486 451 546 q 230 438 321 438 m 301 844 q 291 863 301 844 q 242 882 281 882 q 183 844 203 882 q 163 704 163 807 q 182 565 163 601 q 241 529 201 529 q 301 565 281 529 q 321 703 321 601 q 301 844 321 806 m 880 -17 q 834 -17 880 -17 q 735 39 789 -17 q 682 250 682 94 q 754 471 682 411 q 903 521 814 521 q 1047 464 993 521 q 1101 251 1101 407 q 1031 33 1101 92 q 880 -17 971 -17 m 951 390 q 941 409 951 390 q 892 428 931 428 q 833 390 853 428 q 813 250 813 353 q 832 111 813 147 q 891 75 851 75 q 951 111 931 75 q 971 249 971 147 q 951 390 971 351 m 1355 -17 q 1309 -17 1355 -17 q 1210 39 1264 -17 q 1157 250 1157 94 q 1229 471 1157 411 q 1378 521 1289 521 q 1522 464 1468 521 q 1576 251 1576 407 q 1506 33 1576 92 q 1355 -17 1446 -17 m 1426 390 q 1416 409 1426 390 q 1367 428 1406 428 q 1308 390 1328 428 q 1288 250 1288 353 q 1307 111 1288 147 q 1366 75 1326 75 q 1426 111 1406 75 q 1446 249 1446 147 q 1426 390 1446 351 m 822 1046 l 429 -133 l 281 -93 l 676 1089 l 822 1046 z "},"‹":{"ha":458,"x_min":49,"x_max":407,"o":"m 407 588 l 213 386 l 407 189 l 293 88 l 49 346 l 49 428 l 293 685 l 407 588 z "},"›":{"ha":458,"x_min":51,"x_max":410,"o":"m 246 386 l 51 588 l 165 685 l 410 428 l 410 346 l 165 88 l 51 189 l 246 386 z "},"⁄":{"ha":538,"x_min":-3,"x_max":539,"o":"m 539 1063 l 146 -117 l -3 -76 l 393 1106 l 539 1063 z "},"€":{"ha":807,"x_min":46,"x_max":765,"o":"m 565 626 l 565 524 l 344 524 q 343 471 343 507 q 344 418 343 435 l 565 418 l 565 315 l 361 315 q 594 147 411 147 q 743 158 676 147 l 756 7 q 542 -18 646 -18 q 290 60 394 -18 q 151 315 185 139 l 46 315 l 46 418 l 140 418 q 139 469 139 433 q 140 524 139 506 l 46 524 l 46 626 l 156 626 q 246 814 181 740 q 388 915 311 888 q 562 943 464 943 q 765 913 660 943 l 733 769 q 586 785 654 785 q 363 626 410 785 l 565 626 z "},"™":{"ha":1104,"x_min":61,"x_max":1032,"o":"m 197 839 l 61 839 l 61 928 l 447 928 l 447 839 l 308 839 l 308 406 l 197 406 l 197 839 m 726 471 l 618 779 l 606 406 l 501 406 l 531 928 l 653 928 l 767 592 l 879 928 l 1001 928 l 1032 406 l 928 406 l 914 779 l 807 471 l 726 471 z "},"−":{"ha":725,"x_min":76,"x_max":649,"o":"m 649 461 l 649 310 l 76 310 l 76 461 l 649 461 z "},"ﬁ":{"ha":856,"x_min":21,"x_max":783,"o":"m 783 0 l 589 0 l 589 578 l 346 578 l 346 -258 l 151 -239 l 151 578 l 21 586 l 21 700 l 153 710 l 153 750 q 232 959 153 894 q 482 1024 311 1024 q 689 990 586 1024 l 649 851 q 495 865 589 865 q 374 834 401 865 q 346 732 346 803 l 346 711 l 589 711 l 783 728 l 783 0 z "},"ﬂ":{"ha":1010,"x_min":21,"x_max":1015,"o":"m 1015 13 q 878 -18 944 -18 q 768 -3 811 -18 q 703 32 725 13 q 671 89 682 51 q 658 152 660 126 q 656 224 656 178 l 656 853 q 503 874 601 874 q 376 842 406 874 q 346 732 346 810 l 346 711 l 544 711 l 532 578 l 346 578 l 346 -258 l 151 -239 l 151 578 l 21 586 l 21 700 l 153 710 l 153 750 q 257 978 153 914 q 506 1035 350 1035 q 851 972 661 1035 l 851 213 q 863 156 851 172 q 911 139 875 139 q 986 149 947 139 l 1015 13 z "}}}
